<svg width="819" height="480" viewBox="0 0 819 480" fill="none" xmlns="http://www.w3.org/2000/svg">
<g clip-path="url(#clip0)">
<path d="M269.822 466.383H0V468.25H269.822V466.383Z" fill="#3F3D56"/>
<path d="M170.312 150.229C171.093 152.736 171.785 155.127 172.367 157.182L172.004 157.312C171.552 155.408 170.977 152.942 170.312 150.229ZM148.647 89.1886L148.538 89.2502L148.64 89.1543L148.647 89.1886Z" fill="url(#paint0_linear)"/>
<path d="M122.093 441.893C118.019 443.201 114.958 468.261 114.958 468.261L140.293 474.523C140.293 474.523 158.062 477.147 166.505 474.523C174.948 471.899 174.661 464.617 162.575 463.452C150.489 462.288 141.896 446.702 141.896 446.702C141.896 446.702 126.167 440.584 122.093 441.893Z" fill="#2F2E41"/>
<path d="M92.3616 446.99C92.423 448.997 92.088 450.997 91.3756 452.875C89.3338 459.017 88.4695 465.491 88.8284 471.954C88.8832 472.726 88.9448 473.534 89.0132 474.379C89.8897 484.429 114.191 478.175 115.807 477.003C117.423 475.832 111.014 446.99 111.014 446.99C111.014 446.99 91.9576 442.914 92.3616 446.99Z" fill="#2F2E41"/>
<path d="M118.964 81.8369C118.97 81.845 118.975 81.8544 118.977 81.8643C119.491 83.1248 138.575 129.943 135.123 114.632C135.021 114.176 134.952 113.713 134.918 113.248C134.624 109.487 136.397 105.349 139.253 101.238C141.072 98.6698 143.094 96.2507 145.299 94.0039C146.401 92.8598 147.545 91.7432 148.702 90.6607C151.879 87.6807 155.186 84.9541 158.117 82.6796C163.383 78.5692 167.45 75.959 167.45 75.959C167.45 75.959 130.543 32.9089 133.158 51.4813C133.877 56.5714 136.876 61.6478 134.843 66.3611C133.508 69.3475 131.616 72.0516 129.269 74.3286C127.415 76.1626 125.396 77.8207 123.236 79.2816C122.312 79.905 121.477 80.4257 120.799 80.8231C119.669 81.4875 118.964 81.8369 118.964 81.8369Z" fill="#FFB9B9"/>
<path d="M245.518 137.356C245.518 137.356 246.969 136.548 249.161 135.582C255.604 132.773 268.47 128.663 270.093 139.98C272.277 155.161 257.809 153.414 257.809 153.414C254.949 152.329 252.018 151.438 249.037 150.749C247.572 150.354 246.042 150.258 244.539 150.469L245.518 137.356Z" fill="#FFB9B9"/>
<path d="M243.313 151.729H247.668C250.201 148.304 248.264 135.287 248.264 135.287L244.477 135.972L243.313 151.729Z" fill="#E6E6E6"/>
<path d="M165.485 173.706L166.211 212.016L171.004 230.081C171.004 230.081 173.36 247.564 176.249 246.105C179.139 244.646 191.464 248.797 191.464 248.797L192.046 242.317L187.897 204.226L184.692 185.216C184.692 185.216 182.871 170.281 181.488 161.539C180.105 152.798 168.532 159.724 168.532 159.724L165.485 173.706Z" fill="#2F2E41"/>
<path d="M179.337 154.702C187.205 152.496 197.36 154.702 197.36 154.702L243.237 155.716C251.427 144.899 245.75 134.739 245.75 134.739C245.75 134.739 223.25 133.855 205.015 131.129C186.781 128.402 174.77 114.851 174.77 114.851L179.337 154.702Z" fill="#2F2E41"/>
<path opacity="0.1" d="M133.158 51.4819C130.543 32.9095 167.45 75.9597 167.45 75.9597C167.45 75.9597 163.383 78.5698 158.117 82.6803C157.631 82.7145 157.145 82.7145 156.645 82.7145C145.354 82.7145 137.568 75.6445 133.09 66.0535C134.891 61.7855 133.966 57.1681 133.158 51.4819Z" fill="black"/>
<path d="M130.05 57.2141C130.062 50.5248 132.727 44.1139 137.461 39.3896C142.194 34.6652 148.609 32.0139 155.295 32.0179C161.981 32.022 168.392 34.6811 173.119 39.4111C177.847 44.1412 180.505 50.5553 180.509 57.2446C180.513 63.934 177.863 70.3514 173.141 75.0872C168.419 79.823 162.011 82.4899 155.325 82.5022C148.639 82.5144 142.222 79.8709 137.483 75.1524C132.743 70.4338 130.07 64.0261 130.05 57.3369C130.05 57.2959 130.05 57.255 130.05 57.2141Z" fill="#FFB9B9"/>
<path d="M117.608 165.698L118.977 81.8377L133.61 89.5037L145.751 92.3811L148.825 90.5862L149.044 90.456L149.544 90.1683C149.544 90.1683 149.709 90.5245 150.024 91.1753C152.68 96.7998 165.608 124.306 165.334 126.662C165.047 129.279 174.558 162.272 174.558 162.272L169.97 193.519C169.97 193.519 178.673 215.222 176.373 223.237C174.072 231.253 111.322 225.71 111.322 225.71L117.608 165.698Z" fill="#E6E6E6"/>
<path d="M142.115 94.9706L146.99 101.232L147.778 103.061C150.531 109.512 152.113 116.402 152.448 123.408V131.533L153.468 196.65L159.076 206.658L160.096 194.272L157.843 124.566L154.783 108.809L153.112 98.8276C152.215 97.0843 151.435 95.2831 150.777 93.436C149.106 89.1406 144.806 90.3052 144.806 90.3052L142.115 94.9706Z" fill="#2F2E41"/>
<path d="M120.655 80.4737L120.799 80.8231L121.819 83.3305L122.969 86.1324C124.319 86.9924 125.576 87.9887 126.722 89.1057C130.611 92.5996 136.253 98.2172 139.253 101.238C140.519 102.513 141.314 103.321 141.314 103.321C142.8 101.999 144.292 97.5801 145.299 94.0039C145.463 93.4353 145.607 92.8873 145.744 92.3803C146.251 90.4416 146.559 89.044 146.559 89.044C142.745 87.6807 133.843 78.9734 129.269 74.3286C127.416 76.1626 125.396 77.8207 123.236 79.2817C122.976 78.5555 120.655 80.4737 120.655 80.4737Z" fill="#E6E6E6"/>
<path d="M152.503 92.2165C155.358 93.9635 160 96.2379 165.15 96.4983C165.15 96.4983 176.304 102.404 178.372 122.613C180.44 142.823 189.177 203.569 189.177 203.569C189.177 203.569 196.956 244.529 191.478 248.784L185.363 198.643C185.363 198.643 174.661 169.685 173.887 164.328C173.202 159.45 164.691 132.78 163.198 128.108C163.048 127.669 162.972 127.423 162.972 127.423L154.461 103.342L149.544 90.1613C150.483 90.9122 151.471 91.5988 152.503 92.2165Z" fill="#2F2E41"/>
<path d="M91.3754 367.459C91.3754 367.459 99.962 308.159 97.634 300.158C95.3059 292.156 99.2363 233.02 99.2363 233.02L100.53 221.929L101.256 215.674L101.564 213.057L103.064 213.516C117.536 217.734 132.402 220.461 147.428 221.655C150.759 221.881 154.105 221.614 157.357 220.86C163.301 219.504 174.791 217.839 176.797 216.414C176.797 216.414 177.482 218.257 178.338 221.271C180.31 228.238 183.281 241.556 180.994 252.901L177.495 275.844C177.495 275.844 176.119 299.226 171.6 313.215L167.601 332.294L162.356 371.186C159.766 381.55 157.892 392.079 156.748 402.7C154.837 420.334 143.929 449.586 143.929 449.586C143.929 449.586 120.744 452.792 120.059 444.928L128.071 383.593L135.493 295.753C135.493 295.753 127.448 350.559 122.826 362.362C122.826 362.362 116.416 429.644 114.232 440.009C112.048 450.374 110.596 453.114 110.596 453.114C110.596 453.114 97.0519 458.074 90.9372 448.894C90.9372 448.894 89.1911 421.663 87.8832 411.9C86.5686 402.124 91.3754 367.459 91.3754 367.459Z" fill="#2F2E41"/>
<path d="M102.024 234.74L111.61 239.405L100.182 260.964C95.8882 256.957 96.3949 241.008 96.3949 241.008L102.024 234.74Z" fill="#FFB9B9"/>
<path d="M106.146 234.74L110.514 238.165L104.694 246.982L96.7579 249.893L96.1001 244.063L106.146 234.74Z" fill="#E6E6E6"/>
<g opacity="0.1">
<path opacity="0.1" d="M176.804 216.496C176.781 216.466 176.767 216.431 176.763 216.393C176.64 216.474 176.512 216.547 176.379 216.613L176.804 216.496Z" fill="black"/>
</g>
<path d="M68.8474 246.831C74.0857 252.948 96.9218 254.044 96.9218 254.044L114.718 225.984L119.518 218.421C119.518 218.421 124.866 214.707 134.918 197.985C144.97 181.262 144.628 168.383 144.073 158.764C143.518 149.146 137.226 121.503 137.226 121.503C136.609 118.711 135.839 115.955 134.918 113.248C132.734 106.356 129.427 96.7785 126.722 89.1057C126.236 87.7218 125.77 86.3996 125.325 85.1665C124.503 82.8235 128.68 73.897 128.68 73.897C127.208 76.8497 117.937 81.7068 114.711 83.7415C106.015 89.2221 93.8748 91.4692 93.8748 91.4692C74.3254 94.3123 77.934 114.522 77.934 114.522C77.934 114.522 77.7149 193.08 78.92 202.479C80.1252 211.878 68.8474 246.831 68.8474 246.831Z" fill="#2F2E41"/>
<path opacity="0.1" d="M78.7831 114.516C78.7831 114.516 70.4841 150.578 68.1902 172.864C65.8963 195.149 74.524 209.351 74.524 209.351L92.9778 250.325C99.3117 248.695 112.199 235.254 112.199 235.254L93.7105 184.01C93.7105 184.01 100.565 158.135 104.851 134.301C109.138 110.467 97.7779 99.773 97.7779 99.773C78.7763 92.5659 78.7831 114.516 78.7831 114.516Z" fill="black"/>
<path d="M77.9067 114.516C77.9067 114.516 69.6076 150.578 67.3137 172.864C65.0199 195.149 73.6476 209.351 73.6476 209.351L92.1356 250.325C98.4695 248.695 111.356 235.254 111.356 235.254L92.8683 184.01C92.8683 184.01 99.7294 158.135 104.002 134.301C108.275 110.467 96.9083 99.773 96.9083 99.773C77.9067 92.5659 77.9067 114.516 77.9067 114.516Z" fill="#2F2E41"/>
<path d="M114.376 241.734L109.281 256.306L103.605 264.095C103.605 264.095 99.3527 266.938 98.2913 261.622C97.23 256.306 111.61 236.343 111.61 236.343C113.883 235.445 114.376 241.734 114.376 241.734Z" fill="#2F2E41"/>
<path d="M131.936 70.8785C131.936 70.8785 105.575 34.7363 138.77 26.9217C138.77 26.9217 148.201 12.7693 159.788 19.7301C165.475 23.0685 171.963 24.7949 178.556 24.7239C184.17 24.7239 189.54 26.9217 188.564 35.7131C186.611 53.2958 175.871 50.3653 175.871 50.3653C175.871 50.3653 146.746 37.3098 145.77 51.9621C144.793 66.6143 131.936 70.8785 131.936 70.8785Z" fill="#2F2E41"/>
<path d="M442.417 11.3525C445.551 11.3525 448.091 8.81113 448.091 5.67623C448.091 2.54134 445.551 0 442.417 0C439.284 0 436.744 2.54134 436.744 5.67623C436.744 8.81113 439.284 11.3525 442.417 11.3525Z" fill="#E6E6E6"/>
<path d="M471.136 11.3525C474.27 11.3525 476.81 8.81113 476.81 5.67623C476.81 2.54134 474.27 0 471.136 0C468.003 0 465.463 2.54134 465.463 5.67623C465.463 8.81113 468.003 11.3525 471.136 11.3525Z" fill="#E6E6E6"/>
<path d="M499.855 11.3525C502.989 11.3525 505.529 8.81113 505.529 5.67623C505.529 2.54134 502.989 0 499.855 0C496.722 0 494.182 2.54134 494.182 5.67623C494.182 8.81113 496.722 11.3525 499.855 11.3525Z" fill="#E6E6E6"/>
<path d="M528.574 11.3525C531.707 11.3525 534.248 8.81113 534.248 5.67623C534.248 2.54134 531.707 0 528.574 0C525.441 0 522.901 2.54134 522.901 5.67623C522.901 8.81113 525.441 11.3525 528.574 11.3525Z" fill="#E6E6E6"/>
<path d="M557.293 11.3525C560.427 11.3525 562.967 8.81113 562.967 5.67623C562.967 2.54134 560.427 0 557.293 0C554.16 0 551.62 2.54134 551.62 5.67623C551.62 8.81113 554.16 11.3525 557.293 11.3525Z" fill="#E6E6E6"/>
<path d="M442.417 40.4461C445.551 40.4461 448.091 37.9048 448.091 34.7699C448.091 31.635 445.551 29.0937 442.417 29.0937C439.284 29.0937 436.744 31.635 436.744 34.7699C436.744 37.9048 439.284 40.4461 442.417 40.4461Z" fill="#E6E6E6"/>
<path d="M471.136 40.4461C474.27 40.4461 476.81 37.9048 476.81 34.7699C476.81 31.635 474.27 29.0937 471.136 29.0937C468.003 29.0937 465.463 31.635 465.463 34.7699C465.463 37.9048 468.003 40.4461 471.136 40.4461Z" fill="#E6E6E6"/>
<path d="M499.855 40.4461C502.989 40.4461 505.529 37.9048 505.529 34.7699C505.529 31.635 502.989 29.0937 499.855 29.0937C496.722 29.0937 494.182 31.635 494.182 34.7699C494.182 37.9048 496.722 40.4461 499.855 40.4461Z" fill="#E6E6E6"/>
<path d="M528.574 40.4461C531.707 40.4461 534.248 37.9048 534.248 34.7699C534.248 31.635 531.707 29.0937 528.574 29.0937C525.441 29.0937 522.901 31.635 522.901 34.7699C522.901 37.9048 525.441 40.4461 528.574 40.4461Z" fill="#6C63FF"/>
<path d="M557.293 40.4461C560.427 40.4461 562.967 37.9048 562.967 34.7699C562.967 31.635 560.427 29.0937 557.293 29.0937C554.16 29.0937 551.62 31.635 551.62 34.7699C551.62 37.9048 554.16 40.4461 557.293 40.4461Z" fill="#E6E6E6"/>
<path d="M614.731 40.4461C617.864 40.4461 620.405 37.9048 620.405 34.7699C620.405 31.635 617.864 29.0937 614.731 29.0937C611.598 29.0937 609.058 31.635 609.058 34.7699C609.058 37.9048 611.598 40.4461 614.731 40.4461Z" fill="#E6E6E6"/>
<path d="M442.417 69.5398C445.551 69.5398 448.091 66.9985 448.091 63.8636C448.091 60.7287 445.551 58.1873 442.417 58.1873C439.284 58.1873 436.744 60.7287 436.744 63.8636C436.744 66.9985 439.284 69.5398 442.417 69.5398Z" fill="#E6E6E6"/>
<path d="M471.136 69.5398C474.27 69.5398 476.81 66.9985 476.81 63.8636C476.81 60.7287 474.27 58.1873 471.136 58.1873C468.003 58.1873 465.463 60.7287 465.463 63.8636C465.463 66.9985 468.003 69.5398 471.136 69.5398Z" fill="#E6E6E6"/>
<path d="M499.855 69.5398C502.989 69.5398 505.529 66.9985 505.529 63.8636C505.529 60.7287 502.989 58.1873 499.855 58.1873C496.722 58.1873 494.182 60.7287 494.182 63.8636C494.182 66.9985 496.722 69.5398 499.855 69.5398Z" fill="#E6E6E6"/>
<path d="M528.574 69.5398C531.707 69.5398 534.248 66.9985 534.248 63.8636C534.248 60.7287 531.707 58.1873 528.574 58.1873C525.441 58.1873 522.901 60.7287 522.901 63.8636C522.901 66.9985 525.441 69.5398 528.574 69.5398Z" fill="#E6E6E6"/>
<path d="M557.293 69.5398C560.427 69.5398 562.967 66.9985 562.967 63.8636C562.967 60.7287 560.427 58.1873 557.293 58.1873C554.16 58.1873 551.62 60.7287 551.62 63.8636C551.62 66.9985 554.16 69.5398 557.293 69.5398Z" fill="#E6E6E6"/>
<path d="M442.417 98.6335C445.551 98.6335 448.091 96.0922 448.091 92.9573C448.091 89.8224 445.551 87.2811 442.417 87.2811C439.284 87.2811 436.744 89.8224 436.744 92.9573C436.744 96.0922 439.284 98.6335 442.417 98.6335Z" fill="#E6E6E6"/>
<path d="M471.136 98.6335C474.27 98.6335 476.81 96.0922 476.81 92.9573C476.81 89.8224 474.27 87.2811 471.136 87.2811C468.003 87.2811 465.463 89.8224 465.463 92.9573C465.463 96.0922 468.003 98.6335 471.136 98.6335Z" fill="#E6E6E6"/>
<path d="M499.855 98.6335C502.989 98.6335 505.529 96.0922 505.529 92.9573C505.529 89.8224 502.989 87.2811 499.855 87.2811C496.722 87.2811 494.182 89.8224 494.182 92.9573C494.182 96.0922 496.722 98.6335 499.855 98.6335Z" fill="#E6E6E6"/>
<path d="M528.574 98.6335C531.707 98.6335 534.248 96.0922 534.248 92.9573C534.248 89.8224 531.707 87.2811 528.574 87.2811C525.441 87.2811 522.901 89.8224 522.901 92.9573C522.901 96.0922 525.441 98.6335 528.574 98.6335Z" fill="#E6E6E6"/>
<path d="M557.293 98.6335C560.427 98.6335 562.967 96.0922 562.967 92.9573C562.967 89.8224 560.427 87.2811 557.293 87.2811C554.16 87.2811 551.62 89.8224 551.62 92.9573C551.62 96.0922 554.16 98.6335 557.293 98.6335Z" fill="#E6E6E6"/>
<path d="M586.012 98.6335C589.146 98.6335 591.686 96.0922 591.686 92.9573C591.686 89.8224 589.146 87.2811 586.012 87.2811C582.879 87.2811 580.339 89.8224 580.339 92.9573C580.339 96.0922 582.879 98.6335 586.012 98.6335Z" fill="#E6E6E6"/>
<path d="M614.731 98.6335C617.864 98.6335 620.405 96.0922 620.405 92.9573C620.405 89.8224 617.864 87.2811 614.731 87.2811C611.598 87.2811 609.058 89.8224 609.058 92.9573C609.058 96.0922 611.598 98.6335 614.731 98.6335Z" fill="#E6E6E6"/>
<path d="M643.45 98.6335C646.584 98.6335 649.124 96.0922 649.124 92.9573C649.124 89.8224 646.584 87.2811 643.45 87.2811C640.317 87.2811 637.777 89.8224 637.777 92.9573C637.777 96.0922 640.317 98.6335 643.45 98.6335Z" fill="#E6E6E6"/>
<path d="M672.169 98.6335C675.303 98.6335 677.843 96.0921 677.843 92.9572C677.843 89.8223 675.303 87.281 672.169 87.281C669.036 87.281 666.496 89.8223 666.496 92.9572C666.496 96.0921 669.036 98.6335 672.169 98.6335Z" fill="#E6E6E6"/>
<path d="M700.888 98.6335C704.021 98.6335 706.562 96.0921 706.562 92.9572C706.562 89.8223 704.021 87.281 700.888 87.281C697.755 87.281 695.215 89.8223 695.215 92.9572C695.215 96.0921 697.755 98.6335 700.888 98.6335Z" fill="#E6E6E6"/>
<path d="M557.293 127.727C560.427 127.727 562.967 125.186 562.967 122.051C562.967 118.916 560.427 116.375 557.293 116.375C554.16 116.375 551.62 118.916 551.62 122.051C551.62 125.186 554.16 127.727 557.293 127.727Z" fill="#E6E6E6"/>
<path d="M586.012 127.727C589.146 127.727 591.686 125.186 591.686 122.051C591.686 118.916 589.146 116.375 586.012 116.375C582.879 116.375 580.339 118.916 580.339 122.051C580.339 125.186 582.879 127.727 586.012 127.727Z" fill="#3AD29F"/>
<path d="M614.731 127.727C617.864 127.727 620.405 125.186 620.405 122.051C620.405 118.916 617.864 116.375 614.731 116.375C611.598 116.375 609.058 118.916 609.058 122.051C609.058 125.186 611.598 127.727 614.731 127.727Z" fill="#E6E6E6"/>
<path d="M643.45 127.727C646.584 127.727 649.124 125.186 649.124 122.051C649.124 118.916 646.584 116.375 643.45 116.375C640.317 116.375 637.777 118.916 637.777 122.051C637.777 125.186 640.317 127.727 643.45 127.727Z" fill="#E6E6E6"/>
<path d="M672.169 127.727C675.303 127.727 677.843 125.186 677.843 122.051C677.843 118.916 675.303 116.375 672.169 116.375C669.036 116.375 666.496 118.916 666.496 122.051C666.496 125.186 669.036 127.727 672.169 127.727Z" fill="#E6E6E6"/>
<path d="M700.888 127.727C704.021 127.727 706.562 125.186 706.562 122.051C706.562 118.916 704.021 116.375 700.888 116.375C697.755 116.375 695.215 118.916 695.215 122.051C695.215 125.186 697.755 127.727 700.888 127.727Z" fill="#E6E6E6"/>
<path d="M557.293 156.821C560.427 156.821 562.967 154.28 562.967 151.145C562.967 148.01 560.427 145.468 557.293 145.468C554.16 145.468 551.62 148.01 551.62 151.145C551.62 154.28 554.16 156.821 557.293 156.821Z" fill="#E6E6E6"/>
<path d="M586.012 156.821C589.146 156.821 591.686 154.28 591.686 151.145C591.686 148.01 589.146 145.468 586.012 145.468C582.879 145.468 580.339 148.01 580.339 151.145C580.339 154.28 582.879 156.821 586.012 156.821Z" fill="#E6E6E6"/>
<path d="M614.731 156.821C617.864 156.821 620.405 154.28 620.405 151.145C620.405 148.01 617.864 145.468 614.731 145.468C611.598 145.468 609.058 148.01 609.058 151.145C609.058 154.28 611.598 156.821 614.731 156.821Z" fill="#E6E6E6"/>
<path d="M643.45 156.821C646.584 156.821 649.124 154.28 649.124 151.145C649.124 148.01 646.584 145.468 643.45 145.468C640.317 145.468 637.777 148.01 637.777 151.145C637.777 154.28 640.317 156.821 643.45 156.821Z" fill="#E6E6E6"/>
<path d="M672.169 156.821C675.303 156.821 677.843 154.28 677.843 151.145C677.843 148.01 675.303 145.468 672.169 145.468C669.036 145.468 666.496 148.01 666.496 151.145C666.496 154.28 669.036 156.821 672.169 156.821Z" fill="#3AD29F"/>
<path d="M700.888 156.821C704.021 156.821 706.562 154.28 706.562 151.145C706.562 148.01 704.021 145.468 700.888 145.468C697.755 145.468 695.215 148.01 695.215 151.145C695.215 154.28 697.755 156.821 700.888 156.821Z" fill="#E6E6E6"/>
<path d="M557.293 185.915C560.427 185.915 562.967 183.373 562.967 180.238C562.967 177.103 560.427 174.562 557.293 174.562C554.16 174.562 551.62 177.103 551.62 180.238C551.62 183.373 554.16 185.915 557.293 185.915Z" fill="#E6E6E6"/>
<path d="M586.012 185.915C589.146 185.915 591.686 183.373 591.686 180.238C591.686 177.103 589.146 174.562 586.012 174.562C582.879 174.562 580.339 177.103 580.339 180.238C580.339 183.373 582.879 185.915 586.012 185.915Z" fill="#E6E6E6"/>
<path d="M614.731 185.915C617.864 185.915 620.405 183.373 620.405 180.238C620.405 177.103 617.864 174.562 614.731 174.562C611.598 174.562 609.058 177.103 609.058 180.238C609.058 183.373 611.598 185.915 614.731 185.915Z" fill="#E6E6E6"/>
<path d="M643.45 185.915C646.584 185.915 649.124 183.373 649.124 180.238C649.124 177.103 646.584 174.562 643.45 174.562C640.317 174.562 637.777 177.103 637.777 180.238C637.777 183.373 640.317 185.915 643.45 185.915Z" fill="#E6E6E6"/>
<path d="M672.169 185.915C675.303 185.915 677.843 183.373 677.843 180.238C677.843 177.103 675.303 174.562 672.169 174.562C669.036 174.562 666.496 177.103 666.496 180.238C666.496 183.373 669.036 185.915 672.169 185.915Z" fill="#E6E6E6"/>
<path d="M700.888 185.915C704.021 185.915 706.562 183.373 706.562 180.238C706.562 177.103 704.021 174.562 700.888 174.562C697.755 174.562 695.215 177.103 695.215 180.238C695.215 183.373 697.755 185.915 700.888 185.915Z" fill="#E6E6E6"/>
<path d="M442.417 215.008C445.551 215.008 448.091 212.467 448.091 209.332C448.091 206.197 445.551 203.656 442.417 203.656C439.284 203.656 436.744 206.197 436.744 209.332C436.744 212.467 439.284 215.008 442.417 215.008Z" fill="#E6E6E6"/>
<path d="M471.136 215.008C474.27 215.008 476.81 212.467 476.81 209.332C476.81 206.197 474.27 203.656 471.136 203.656C468.003 203.656 465.463 206.197 465.463 209.332C465.463 212.467 468.003 215.008 471.136 215.008Z" fill="#E6E6E6"/>
<path d="M499.855 215.008C502.989 215.008 505.529 212.467 505.529 209.332C505.529 206.197 502.989 203.656 499.855 203.656C496.722 203.656 494.182 206.197 494.182 209.332C494.182 212.467 496.722 215.008 499.855 215.008Z" fill="#E6E6E6"/>
<path d="M528.574 215.008C531.707 215.008 534.248 212.467 534.248 209.332C534.248 206.197 531.707 203.656 528.574 203.656C525.441 203.656 522.901 206.197 522.901 209.332C522.901 212.467 525.441 215.008 528.574 215.008Z" fill="#E6E6E6"/>
<path d="M557.293 215.008C560.427 215.008 562.967 212.467 562.967 209.332C562.967 206.197 560.427 203.656 557.293 203.656C554.16 203.656 551.62 206.197 551.62 209.332C551.62 212.467 554.16 215.008 557.293 215.008Z" fill="#E6E6E6"/>
<path d="M586.012 215.008C589.146 215.008 591.686 212.467 591.686 209.332C591.686 206.197 589.146 203.656 586.012 203.656C582.879 203.656 580.339 206.197 580.339 209.332C580.339 212.467 582.879 215.008 586.012 215.008Z" fill="#E6E6E6"/>
<path d="M614.731 215.008C617.864 215.008 620.405 212.467 620.405 209.332C620.405 206.197 617.864 203.656 614.731 203.656C611.598 203.656 609.058 206.197 609.058 209.332C609.058 212.467 611.598 215.008 614.731 215.008Z" fill="#E6E6E6"/>
<path d="M643.45 215.008C646.584 215.008 649.124 212.467 649.124 209.332C649.124 206.197 646.584 203.656 643.45 203.656C640.317 203.656 637.777 206.197 637.777 209.332C637.777 212.467 640.317 215.008 643.45 215.008Z" fill="#E6E6E6"/>
<path d="M672.169 215.008C675.303 215.008 677.843 212.467 677.843 209.332C677.843 206.197 675.303 203.656 672.169 203.656C669.036 203.656 666.496 206.197 666.496 209.332C666.496 212.467 669.036 215.008 672.169 215.008Z" fill="#E6E6E6"/>
<path d="M700.888 215.008C704.021 215.008 706.562 212.467 706.562 209.332C706.562 206.197 704.021 203.656 700.888 203.656C697.755 203.656 695.215 206.197 695.215 209.332C695.215 212.467 697.755 215.008 700.888 215.008Z" fill="#E6E6E6"/>
<path d="M448.087 238.448C448.1 235.313 445.57 232.761 442.437 232.749C439.303 232.736 436.753 235.267 436.74 238.402C436.728 241.537 439.257 244.088 442.391 244.101C445.524 244.114 448.075 241.583 448.087 238.448Z" fill="#E6E6E6"/>
<path d="M471.136 244.102C474.27 244.102 476.81 241.561 476.81 238.426C476.81 235.291 474.27 232.749 471.136 232.749C468.003 232.749 465.463 235.291 465.463 238.426C465.463 241.561 468.003 244.102 471.136 244.102Z" fill="#E6E6E6"/>
<path d="M448.087 267.541C448.1 264.407 445.57 261.855 442.437 261.842C439.303 261.829 436.753 264.36 436.74 267.495C436.728 270.63 439.257 273.182 442.391 273.195C445.524 273.207 448.075 270.676 448.087 267.541Z" fill="#E6E6E6"/>
<path d="M471.136 273.196C474.27 273.196 476.81 270.654 476.81 267.519C476.81 264.385 474.27 261.843 471.136 261.843C468.003 261.843 465.463 264.385 465.463 267.519C465.463 270.654 468.003 273.196 471.136 273.196Z" fill="#E6E6E6"/>
<path d="M528.574 273.196C531.707 273.196 534.248 270.654 534.248 267.519C534.248 264.385 531.707 261.843 528.574 261.843C525.441 261.843 522.901 264.385 522.901 267.519C522.901 270.654 525.441 273.196 528.574 273.196Z" fill="#E6E6E6"/>
<path d="M659.538 23.2402C658.765 23.2402 658.023 23.5474 657.477 24.0942C656.93 24.641 656.623 25.3827 656.623 26.156C656.623 26.9294 656.93 27.6711 657.477 28.2179C658.023 28.7647 658.765 29.0719 659.538 29.0719H736.979C737.752 29.0719 738.493 28.7647 739.04 28.2179C739.586 27.6711 739.893 26.9294 739.893 26.156C739.893 25.3827 739.586 24.641 739.04 24.0942C738.493 23.5474 737.752 23.2402 736.979 23.2402H659.538Z" fill="#E6E6E6"/>
<path d="M659.538 40.7354C658.765 40.7354 658.023 41.0427 657.477 41.5895C656.93 42.1363 656.623 42.878 656.623 43.6513C656.623 44.4246 656.93 45.1663 657.477 45.7132C658.023 46.26 658.765 46.5672 659.538 46.5672H796.933C797.706 46.5672 798.447 46.26 798.994 45.7132C799.541 45.1663 799.848 44.4246 799.848 43.6513C799.848 42.878 799.541 42.1363 798.994 41.5895C798.447 41.0427 797.706 40.7354 796.933 40.7354H659.538Z" fill="#E6E6E6"/>
<path d="M525.89 180.271H301.061C299.957 180.269 298.899 179.83 298.118 179.049C297.338 178.268 296.899 177.21 296.897 176.105V120.307C296.899 119.203 297.338 118.144 298.118 117.363C298.899 116.583 299.957 116.143 301.061 116.142H525.89C526.994 116.143 528.052 116.583 528.833 117.363C529.613 118.144 530.052 119.203 530.053 120.307V176.105C530.052 177.21 529.613 178.268 528.833 179.049C528.052 179.83 526.994 180.269 525.89 180.271ZM301.061 117.808C300.398 117.809 299.763 118.072 299.295 118.541C298.827 119.01 298.563 119.645 298.563 120.307V176.105C298.563 176.768 298.827 177.403 299.295 177.872C299.763 178.34 300.398 178.604 301.061 178.605H525.89C526.552 178.604 527.187 178.34 527.656 177.872C528.124 177.403 528.387 176.768 528.388 176.105V120.307C528.387 119.645 528.124 119.01 527.656 118.541C527.187 118.072 526.552 117.809 525.89 117.808H301.061Z" fill="#3F3D56"/>
<path d="M330.205 165.701C339.863 165.701 347.692 157.868 347.692 148.206C347.692 138.544 339.863 130.711 330.205 130.711C320.548 130.711 312.719 138.544 312.719 148.206C312.719 157.868 320.548 165.701 330.205 165.701Z" fill="#3AD29F"/>
<path d="M370.591 136.543C369.818 136.543 369.077 136.85 368.53 137.397C367.984 137.944 367.677 138.685 367.677 139.459C367.677 140.232 367.984 140.973 368.53 141.52C369.077 142.067 369.818 142.374 370.591 142.374H451.363C452.136 142.374 452.877 142.067 453.424 141.52C453.97 140.973 454.277 140.232 454.277 139.459C454.277 138.685 453.97 137.944 453.424 137.397C452.877 136.85 452.136 136.543 451.363 136.543H370.591Z" fill="#E6E6E6"/>
<path d="M370.591 154.038C369.818 154.038 369.077 154.345 368.53 154.892C367.984 155.439 367.677 156.18 367.677 156.954C367.677 157.727 367.984 158.469 368.53 159.016C369.077 159.562 369.818 159.87 370.591 159.87H507.986C508.759 159.87 509.501 159.562 510.047 159.016C510.594 158.469 510.901 157.727 510.901 156.954C510.901 156.18 510.594 155.439 510.047 154.892C509.501 154.345 508.759 154.038 507.986 154.038H370.591Z" fill="#E6E6E6"/>
<path d="M729.068 302.737H504.239C503.135 302.736 502.077 302.297 501.297 301.516C500.516 300.735 500.077 299.676 500.076 298.572V242.774C500.077 241.67 500.516 240.611 501.297 239.83C502.077 239.049 503.135 238.61 504.239 238.608H729.068C730.172 238.61 731.231 239.049 732.011 239.83C732.792 240.611 733.231 241.67 733.232 242.774V298.572C733.231 299.676 732.792 300.735 732.011 301.516C731.231 302.297 730.172 302.736 729.068 302.737ZM504.239 240.275C503.577 240.275 502.942 240.539 502.474 241.007C502.005 241.476 501.742 242.111 501.741 242.774V298.572C501.742 299.234 502.005 299.87 502.474 300.338C502.942 300.807 503.577 301.07 504.239 301.071H729.068C729.731 301.07 730.366 300.807 730.834 300.338C731.302 299.87 731.566 299.234 731.567 298.572V242.774C731.566 242.111 731.302 241.476 730.834 241.007C730.366 240.539 729.731 240.275 729.068 240.275H504.239Z" fill="#E6E6E6"/>
<path d="M533.384 288.168C543.041 288.168 550.87 280.335 550.87 270.673C550.87 261.01 543.041 253.177 533.384 253.177C523.726 253.177 515.897 261.01 515.897 270.673C515.897 280.335 523.726 288.168 533.384 288.168Z" fill="#3AD29F"/>
<path d="M573.77 259.009C572.997 259.009 572.255 259.316 571.709 259.863C571.162 260.41 570.855 261.152 570.855 261.925C570.855 262.698 571.162 263.44 571.709 263.987C572.255 264.534 572.997 264.841 573.77 264.841H647.88C648.653 264.841 649.394 264.534 649.941 263.987C650.487 263.44 650.794 262.698 650.794 261.925C650.794 261.152 650.487 260.41 649.941 259.863C649.394 259.316 648.653 259.009 647.88 259.009H573.77Z" fill="#E6E6E6"/>
<path d="M573.77 276.504C572.997 276.504 572.255 276.812 571.709 277.358C571.162 277.905 570.855 278.647 570.855 279.42C570.855 280.194 571.162 280.935 571.709 281.482C572.255 282.029 572.997 282.336 573.77 282.336H711.165C711.938 282.336 712.679 282.029 713.226 281.482C713.772 280.935 714.08 280.194 714.08 279.42C714.08 278.647 713.772 277.905 713.226 277.358C712.679 276.812 711.938 276.504 711.165 276.504H573.77Z" fill="#E6E6E6"/>
<path d="M450.019 28.0131H442.828L441.461 32.1147H437.099L444.51 12.2084H448.31L455.761 32.1147H451.4L450.019 28.0131ZM443.935 24.6908H448.912L446.41 17.2397L443.935 24.6908ZM456.746 24.6088C456.746 22.3028 457.261 20.4662 458.291 19.099C459.33 17.7318 460.747 17.0482 462.543 17.0482C463.983 17.0482 465.172 17.586 466.111 18.6615V11.1147H470.076V32.1147H466.508L466.316 30.5424C465.332 31.7729 464.065 32.3881 462.515 32.3881C460.774 32.3881 459.375 31.7045 458.318 30.3373C457.27 28.961 456.746 27.0515 456.746 24.6088ZM460.697 24.8959C460.697 26.2813 460.939 27.3432 461.422 28.0815C461.905 28.8197 462.607 29.1889 463.527 29.1889C464.748 29.1889 465.61 28.6739 466.111 27.644V21.8061C465.619 20.7761 464.767 20.2611 463.554 20.2611C461.649 20.2611 460.697 21.8061 460.697 24.8959ZM478.676 27.2885L481.424 17.3217H485.552L480.562 32.1147H476.789L471.799 17.3217H475.927L478.676 27.2885ZM491.472 32.1147H487.508V17.3217H491.472V32.1147ZM487.275 13.4936C487.275 12.9011 487.471 12.4135 487.863 12.0307C488.264 11.6479 488.806 11.4565 489.49 11.4565C490.164 11.4565 490.702 11.6479 491.103 12.0307C491.504 12.4135 491.705 12.9011 491.705 13.4936C491.705 14.0951 491.5 14.5873 491.09 14.9701C490.689 15.3529 490.155 15.5443 489.49 15.5443C488.825 15.5443 488.287 15.3529 487.877 14.9701C487.476 14.5873 487.275 14.0951 487.275 13.4936ZM502.752 28.0268C502.752 27.5437 502.51 27.1654 502.027 26.892C501.553 26.6094 500.788 26.3588 499.73 26.14C496.212 25.4018 494.453 23.907 494.453 21.6557C494.453 20.3432 494.995 19.2494 496.08 18.3744C497.174 17.4903 498.6 17.0482 500.359 17.0482C502.237 17.0482 503.736 17.4903 504.857 18.3744C505.987 19.2585 506.552 20.407 506.552 21.8197H502.601C502.601 21.2546 502.419 20.7898 502.054 20.4252C501.69 20.0515 501.12 19.8647 500.345 19.8647C499.68 19.8647 499.165 20.015 498.801 20.3158C498.436 20.6166 498.254 20.9994 498.254 21.4643C498.254 21.9018 498.459 22.2572 498.869 22.5307C499.288 22.795 499.99 23.0274 500.974 23.2279C501.959 23.4193 502.788 23.6381 503.463 23.8842C505.55 24.6498 506.594 25.976 506.594 27.8627C506.594 29.2117 506.015 30.3054 504.857 31.144C503.7 31.9734 502.205 32.3881 500.373 32.3881C499.133 32.3881 498.03 32.1693 497.064 31.7318C496.107 31.2852 495.355 30.6791 494.808 29.9135C494.261 29.1387 493.988 28.3048 493.988 27.4115H497.734C497.771 28.1134 498.03 28.6511 498.513 29.0248C498.997 29.3985 499.644 29.5854 500.455 29.5854C501.211 29.5854 501.781 29.4441 502.164 29.1615C502.556 28.8699 502.752 28.4916 502.752 28.0268ZM508.535 24.5815C508.535 23.114 508.817 21.8061 509.383 20.6576C509.948 19.5092 510.759 18.6205 511.816 17.9916C512.883 17.3627 514.118 17.0482 515.521 17.0482C517.517 17.0482 519.144 17.6589 520.402 18.8803C521.669 20.1016 522.375 21.7605 522.521 23.8568L522.549 24.8686C522.549 27.1381 521.915 28.961 520.648 30.3373C519.381 31.7045 517.681 32.3881 515.549 32.3881C513.416 32.3881 511.711 31.7045 510.435 30.3373C509.168 28.9701 508.535 27.1107 508.535 24.7592V24.5815ZM512.486 24.8686C512.486 26.2722 512.75 27.3477 513.279 28.0951C513.808 28.8334 514.564 29.2025 515.549 29.2025C516.506 29.2025 517.253 28.838 517.791 28.1088C518.329 27.3705 518.597 26.1947 518.597 24.5815C518.597 23.2051 518.329 22.1387 517.791 21.3822C517.253 20.6257 516.497 20.2475 515.521 20.2475C514.555 20.2475 513.808 20.6257 513.279 21.3822C512.75 22.1296 512.486 23.2917 512.486 24.8686ZM533.295 21.0268C532.757 20.9538 532.283 20.9174 531.873 20.9174C530.378 20.9174 529.398 21.4232 528.933 22.435V32.1147H524.982V17.3217H528.715L528.824 19.0854C529.617 17.7273 530.715 17.0482 532.119 17.0482C532.556 17.0482 532.967 17.1075 533.349 17.226L533.295 21.0268ZM540.978 26.5229L543.713 17.3217H547.951L542.004 34.4115L541.676 35.1908C540.791 37.1231 539.333 38.0893 537.301 38.0893C536.726 38.0893 536.143 38.0027 535.551 37.8295V34.8354L536.152 34.849C536.899 34.849 537.455 34.7351 537.82 34.5072C538.194 34.2794 538.485 33.9011 538.695 33.3725L539.16 32.1557L533.978 17.3217H538.23L540.978 26.5229Z" fill="black" fill-opacity="0.8"/>
</g>
<defs>
<linearGradient id="paint0_linear" x1="160.452" y1="157.312" x2="160.452" y2="89.1543" gradientUnits="userSpaceOnUse">
<stop stop-color="#808080" stop-opacity="0.25"/>
<stop offset="0.54" stop-color="#808080" stop-opacity="0.12"/>
<stop offset="1" stop-color="#808080" stop-opacity="0.1"/>
</linearGradient>
<clipPath id="clip0">
<rect width="819" height="480" fill="white"/>
</clipPath>
</defs>
</svg>
