<?xml version="1.0" encoding="UTF-8"?>
<svg xmlns="http://www.w3.org/2000/svg" xmlns:xlink="http://www.w3.org/1999/xlink" width="24pt" height="24pt" viewBox="0 0 24 24" version="1.1">
<g id="surface1">
<path style=" stroke:none;fill-rule:nonzero;fill:rgb(0%,0%,0%);fill-opacity:1;" d="M 2.199219 23.035156 L 2.203125 23.511719 L 2.203125 23.035156 Z M 2.199219 23.035156 "/>
<path style=" stroke:none;fill-rule:nonzero;fill:rgb(0%,0%,0%);fill-opacity:1;" d="M 22.113281 0.929688 C 22.359375 0.832031 22.480469 0.550781 22.378906 0.300781 C 22.28125 0.0546875 22 -0.0625 21.75 0.0351562 C 18.785156 1.207031 18.070312 4.003906 17.90625 5.121094 C 16.816406 5.15625 15.785156 5.613281 15.027344 6.394531 C 14.242188 7.179688 13.8125 8.253906 13.835938 9.363281 C 13.863281 11.058594 13.488281 13.414062 10.339844 16.839844 C 8.308594 19.019531 5.21875 20.882812 3.378906 21.988281 C 1.769531 22.953125 1.484375 23.128906 1.613281 23.601562 C 1.691406 23.859375 1.941406 24.023438 2.207031 23.996094 C 4.652344 23.996094 10.820312 23.628906 15.222656 20.203125 C 19.695312 16.722656 22.261719 12.753906 22.261719 9.3125 C 22.257812 9.117188 22.246094 8.925781 22.21875 8.734375 C 21.96875 6.96875 20.632812 5.554688 18.886719 5.199219 C 19.039062 4.226562 19.671875 1.890625 22.113281 0.929688 Z M 14.628906 19.445312 C 11.125 22.167969 6.378906 22.835938 3.5625 22.996094 L 3.875 22.808594 C 5.761719 21.671875 8.921875 19.769531 11.082031 17.441406 C 14.472656 13.769531 14.863281 11.164062 14.832031 9.296875 C 14.832031 9.242188 14.832031 9.1875 14.832031 9.132812 C 15.53125 9.273438 16.320312 9.558594 16.484375 9.855469 C 16.609375 10.089844 16.894531 10.179688 17.132812 10.058594 C 17.164062 10.042969 17.195312 10.023438 17.222656 9.996094 C 17.667969 9.628906 18.164062 9.328125 18.699219 9.113281 C 19.0625 9.390625 19.34375 9.761719 19.511719 10.1875 C 19.558594 10.351562 19.691406 10.480469 19.855469 10.523438 C 19.894531 10.527344 19.9375 10.527344 19.976562 10.523438 C 20.105469 10.523438 20.230469 10.46875 20.324219 10.375 C 20.621094 10.070312 20.945312 9.800781 21.296875 9.5625 C 21.140625 12.636719 18.683594 16.292969 14.628906 19.445312 Z M 20.320312 6.992188 C 20.753906 7.414062 21.058594 7.949219 21.199219 8.535156 C 20.808594 8.734375 20.441406 8.980469 20.109375 9.273438 C 19.824219 8.851562 19.464844 8.480469 19.046875 8.183594 C 18.929688 8.101562 18.785156 8.078125 18.648438 8.117188 C 18.039062 8.300781 17.464844 8.585938 16.953125 8.964844 C 16.371094 8.554688 15.703125 8.285156 15 8.183594 C 15.152344 7.75 15.402344 7.359375 15.722656 7.03125 C 16.980469 5.75 19.039062 5.730469 20.320312 6.992188 Z M 20.320312 6.992188 "/>
</g>
</svg>
