<?xml version="1.0" encoding="UTF-8"?>
<svg xmlns="http://www.w3.org/2000/svg" xmlns:xlink="http://www.w3.org/1999/xlink" width="24pt" height="24pt" viewBox="0 0 24 24" version="1.1">
<g id="surface1">
<path style=" stroke:none;fill-rule:nonzero;fill:rgb(0%,0%,0%);fill-opacity:1;" d="M 14.207031 12.027344 L 23.558594 2.675781 C 24.167969 2.066406 24.167969 1.085938 23.558594 0.476562 C 22.949219 -0.132812 21.964844 -0.132812 21.359375 0.476562 L 12.007812 9.828125 L 2.65625 0.476562 C 2.046875 -0.132812 1.066406 -0.132812 0.457031 0.476562 C -0.152344 1.085938 -0.152344 2.066406 0.457031 2.675781 L 9.808594 12.027344 L 0.457031 21.378906 C -0.152344 21.984375 -0.152344 22.96875 0.457031 23.578125 C 0.757812 23.882812 1.15625 24.035156 1.554688 24.035156 C 1.953125 24.035156 2.351562 23.882812 2.65625 23.578125 L 12.007812 14.226562 L 21.359375 23.578125 C 21.660156 23.882812 22.058594 24.035156 22.457031 24.035156 C 22.855469 24.035156 23.253906 23.882812 23.558594 23.578125 C 24.167969 22.96875 24.167969 21.984375 23.558594 21.378906 Z M 14.207031 12.027344 "/>
</g>
</svg>
