<?xml version="1.0" encoding="UTF-8"?>
<svg xmlns="http://www.w3.org/2000/svg" xmlns:xlink="http://www.w3.org/1999/xlink" width="24pt" height="24pt" viewBox="0 0 24 24" version="1.1">
<g id="surface1">
<path style=" stroke:none;fill-rule:nonzero;fill:rgb(0%,0%,0%);fill-opacity:1;" d="M 21.929688 8.976562 C 22.191406 7.722656 21.894531 6.417969 21.113281 5.402344 C 20.335938 4.382812 19.15625 3.753906 17.878906 3.675781 C 16.78125 1.425781 14.5 0 12 0 C 9.5 0 7.21875 1.425781 6.121094 3.675781 C 4.84375 3.753906 3.664062 4.382812 2.886719 5.402344 C 2.105469 6.417969 1.808594 7.722656 2.070312 8.976562 C 0.75 9.851562 0 11.097656 0 12.425781 C 0 14.964844 2.765625 17.03125 6.164062 17.03125 L 6.203125 17.03125 C 6.613281 17.207031 7.054688 17.296875 7.5 17.296875 L 10.933594 17.296875 L 10.933594 23.671875 C 10.933594 23.855469 11.082031 24 11.261719 24 L 12.738281 24 C 12.917969 24 13.066406 23.855469 13.066406 23.671875 L 13.066406 17.296875 L 16.5 17.296875 C 16.945312 17.296875 17.386719 17.207031 17.796875 17.027344 L 17.835938 17.027344 C 21.234375 17.03125 24 14.964844 24 12.425781 C 24 11.097656 23.25 9.851562 21.929688 8.976562 Z M 12.738281 16.640625 C 12.558594 16.640625 12.410156 16.789062 12.410156 16.96875 L 12.410156 23.34375 L 11.589844 23.34375 L 11.589844 16.96875 C 11.589844 16.789062 11.441406 16.640625 11.261719 16.640625 L 7.5 16.640625 C 6.175781 16.640625 5.0625 15.65625 4.894531 14.34375 L 9.046875 14.34375 C 9.179688 14.34375 9.300781 14.265625 9.351562 14.140625 C 9.402344 14.019531 9.371094 13.878906 9.277344 13.785156 L 9.050781 13.554688 C 8.117188 12.621094 8.023438 11.136719 8.832031 10.089844 L 11.769531 13.023438 C 11.828125 13.085938 11.914062 13.121094 12 13.121094 C 12.085938 13.121094 12.171875 13.085938 12.230469 13.023438 L 15.167969 10.089844 C 15.976562 11.136719 15.882812 12.621094 14.949219 13.554688 L 14.722656 13.785156 C 14.628906 13.878906 14.601562 14.019531 14.652344 14.140625 C 14.703125 14.261719 14.820312 14.34375 14.953125 14.34375 L 19.105469 14.34375 C 18.9375 15.65625 17.824219 16.640625 16.5 16.640625 Z M 18.847656 16.304688 C 19.445312 15.695312 19.78125 14.871094 19.78125 14.015625 C 19.78125 13.929688 19.746094 13.84375 19.683594 13.785156 C 19.625 13.722656 19.539062 13.6875 19.453125 13.6875 L 15.703125 13.6875 C 16.695312 12.378906 16.574219 10.539062 15.414062 9.378906 C 15.351562 9.316406 15.269531 9.28125 15.179688 9.28125 C 15.09375 9.28125 15.011719 9.316406 14.949219 9.378906 L 12 12.328125 L 9.050781 9.378906 C 8.917969 9.253906 8.714844 9.253906 8.585938 9.378906 C 7.425781 10.542969 7.304688 12.378906 8.296875 13.6875 L 4.546875 13.6875 C 4.363281 13.6875 4.21875 13.835938 4.21875 14.015625 C 4.21875 14.871094 4.554688 15.695312 5.152344 16.304688 C 2.597656 15.964844 0.65625 14.355469 0.65625 12.425781 C 0.65625 11.265625 1.367188 10.164062 2.613281 9.410156 C 2.738281 9.335938 2.796875 9.1875 2.761719 9.046875 C 2.464844 7.925781 2.699219 6.734375 3.398438 5.8125 C 4.097656 4.890625 5.179688 4.339844 6.339844 4.324219 C 6.464844 4.320312 6.582031 4.246094 6.632812 4.128906 C 7.582031 2.015625 9.683594 0.65625 12 0.65625 C 14.316406 0.65625 16.417969 2.015625 17.367188 4.128906 C 17.417969 4.246094 17.535156 4.324219 17.664062 4.324219 C 18.820312 4.339844 19.902344 4.890625 20.601562 5.8125 C 21.300781 6.734375 21.535156 7.925781 21.238281 9.046875 C 21.203125 9.1875 21.261719 9.335938 21.386719 9.410156 C 22.632812 10.164062 23.34375 11.265625 23.34375 12.425781 C 23.34375 14.355469 21.402344 15.964844 18.847656 16.304688 Z M 18.847656 16.304688 "/>
<path style=" stroke:none;fill-rule:nonzero;fill:rgb(0%,0%,0%);fill-opacity:1;" d="M 19.183594 6.09375 C 19.09375 6.019531 18.96875 5.996094 18.855469 6.039062 C 18.746094 6.082031 18.667969 6.183594 18.648438 6.300781 C 18.632812 6.417969 18.679688 6.535156 18.777344 6.605469 C 19.226562 6.960938 19.492188 7.503906 19.492188 8.078125 C 19.492188 8.261719 19.636719 8.40625 19.820312 8.40625 C 20 8.40625 20.148438 8.261719 20.148438 8.078125 C 20.148438 7.304688 19.792969 6.574219 19.183594 6.09375 Z M 19.183594 6.09375 "/>
<path style=" stroke:none;fill-rule:nonzero;fill:rgb(0%,0%,0%);fill-opacity:1;" d="M 12 1.875 C 11.820312 1.875 11.671875 2.023438 11.671875 2.203125 C 11.671875 2.382812 11.820312 2.53125 12 2.53125 C 12.929688 2.53125 13.828125 2.855469 14.546875 3.449219 C 14.636719 3.527344 14.761719 3.550781 14.875 3.511719 C 14.988281 3.46875 15.070312 3.371094 15.089844 3.25 C 15.105469 3.132812 15.058594 3.015625 14.964844 2.941406 C 14.128906 2.253906 13.082031 1.875 12 1.875 Z M 12 1.875 "/>
</g>
</svg>
