<?xml version="1.0" encoding="UTF-8"?>
<svg xmlns="http://www.w3.org/2000/svg" xmlns:xlink="http://www.w3.org/1999/xlink" width="24pt" height="24pt" viewBox="0 0 24 24" version="1.1">
<g id="surface1">
<path style=" stroke:none;fill-rule:nonzero;fill:rgb(0%,0%,0%);fill-opacity:1;" d="M 13.5625 7.347656 C 13.304688 7.347656 13.09375 7.136719 13.09375 6.878906 L 13.09375 5.835938 C 13.09375 5.578125 13.304688 5.367188 13.5625 5.367188 C 13.820312 5.367188 14.03125 5.578125 14.03125 5.835938 L 14.03125 6.878906 C 14.03125 7.136719 13.820312 7.347656 13.5625 7.347656 Z M 13.5625 7.347656 "/>
<path style=" stroke:none;fill-rule:nonzero;fill:rgb(0%,0%,0%);fill-opacity:1;" d="M 10.441406 7.347656 C 10.179688 7.347656 9.972656 7.136719 9.972656 6.878906 L 9.972656 5.835938 C 9.972656 5.578125 10.179688 5.367188 10.441406 5.367188 C 10.699219 5.367188 10.910156 5.578125 10.910156 5.835938 L 10.910156 6.878906 C 10.910156 7.136719 10.699219 7.347656 10.441406 7.347656 Z M 10.441406 7.347656 "/>
<path style=" stroke:none;fill-rule:nonzero;fill:rgb(0%,0%,0%);fill-opacity:1;" d="M 18.214844 7.433594 C 18.121094 7.039062 18.015625 6.648438 17.902344 6.269531 C 17.808594 5.949219 17.539062 5.707031 17.199219 5.640625 C 16.851562 5.566406 16.496094 5.691406 16.273438 5.957031 C 16.210938 6.03125 16.148438 6.113281 16.085938 6.199219 C 15.75 4.644531 15.289062 3.292969 14.726562 2.242188 C 13.941406 0.773438 13 0 12 0 C 11.003906 0 10.0625 0.773438 9.277344 2.242188 C 8.714844 3.292969 8.25 4.644531 7.917969 6.199219 C 7.851562 6.113281 7.789062 6.03125 7.726562 5.957031 C 7.507812 5.691406 7.152344 5.566406 6.800781 5.640625 C 6.464844 5.707031 6.195312 5.949219 6.101562 6.269531 C 5.566406 8.070312 4.464844 12.652344 5.734375 16.324219 C 6.246094 17.804688 6.96875 19.039062 7.875 19.996094 C 8.675781 20.839844 9.644531 21.488281 10.757812 21.929688 L 10.757812 22.519531 C 10.757812 23.335938 11.421875 24 12.238281 24 C 12.996094 24 13.628906 23.429688 13.710938 22.675781 C 13.714844 22.644531 13.714844 22.609375 13.710938 22.578125 C 13.707031 22.558594 13.707031 22.539062 13.707031 22.519531 L 13.707031 21.6875 C 15.855469 20.667969 17.386719 18.867188 18.265625 16.324219 C 19.34375 13.210938 18.695312 9.417969 18.214844 7.433594 Z M 12 0.9375 C 13.308594 0.9375 14.707031 3.609375 15.34375 7.300781 C 14.492188 8.703125 13.542969 10.675781 12.703125 12.832031 C 12.621094 13.035156 12.546875 13.238281 12.46875 13.4375 L 12.46875 10.484375 C 12.46875 10.226562 12.261719 10.015625 12 10.015625 C 11.742188 10.015625 11.53125 10.226562 11.53125 10.484375 L 11.53125 13.503906 C 10.671875 11.167969 9.613281 8.886719 8.65625 7.304688 C 9.296875 3.609375 10.695312 0.9375 12 0.9375 Z M 6.621094 16.019531 C 5.445312 12.617188 6.484375 8.285156 6.992188 6.558594 C 7 6.554688 7.003906 6.554688 7.003906 6.554688 C 8.375 8.210938 10.386719 12.601562 11.496094 16.355469 C 11.007812 18.042969 10.75 19.480469 10.757812 20.503906 C 10.757812 20.507812 10.757812 20.511719 10.757812 20.515625 L 10.757812 20.910156 C 8.808594 20.03125 7.453125 18.425781 6.621094 16.019531 Z M 12.238281 23.0625 C 11.9375 23.0625 11.695312 22.820312 11.695312 22.519531 L 11.695312 20.53125 C 11.695312 20.523438 11.695312 20.515625 11.695312 20.511719 C 11.679688 18.96875 12.382812 16.226562 13.574219 13.171875 C 14.691406 10.320312 16.03125 7.722656 16.992188 6.558594 C 16.996094 6.554688 17.003906 6.554688 17.011719 6.558594 C 17.097656 6.855469 17.179688 7.160156 17.257812 7.46875 C 16.257812 9.152344 15.15625 11.5625 14.289062 13.972656 C 13.714844 15.5625 12.757812 18.519531 12.769531 20.503906 C 12.769531 20.503906 12.769531 20.503906 12.769531 20.507812 C 12.769531 20.507812 12.769531 20.511719 12.769531 20.515625 L 12.769531 22.519531 C 12.769531 22.550781 12.769531 22.582031 12.773438 22.613281 C 12.726562 22.871094 12.503906 23.0625 12.238281 23.0625 Z M 17.382812 16.019531 C 16.644531 18.144531 15.410156 19.695312 13.710938 20.632812 L 13.707031 20.527344 C 13.707031 20.519531 13.707031 20.515625 13.707031 20.511719 C 13.695312 19.171875 14.226562 16.902344 15.167969 14.289062 C 15.875 12.335938 16.734375 10.382812 17.558594 8.839844 C 17.933594 10.824219 18.199219 13.660156 17.382812 16.019531 Z M 17.382812 16.019531 "/>
<path style=" stroke:none;fill-rule:nonzero;fill:rgb(0%,0%,0%);fill-opacity:1;" d="M 12 8.828125 C 11.804688 8.828125 11.625 8.699219 11.558594 8.515625 C 11.496094 8.335938 11.550781 8.125 11.699219 8 C 11.851562 7.871094 12.078125 7.855469 12.25 7.960938 C 12.414062 8.0625 12.496094 8.261719 12.460938 8.449219 C 12.417969 8.664062 12.222656 8.828125 12 8.828125 Z M 12 8.828125 "/>
<path style=" stroke:none;fill-rule:nonzero;fill:rgb(0%,0%,0%);fill-opacity:1;" d="M 12 4.402344 C 11.742188 4.402344 11.53125 4.195312 11.53125 3.933594 L 11.53125 2.894531 C 11.53125 2.632812 11.742188 2.425781 12 2.425781 C 12.261719 2.425781 12.46875 2.632812 12.46875 2.894531 L 12.46875 3.933594 C 12.46875 4.195312 12.261719 4.402344 12 4.402344 Z M 12 4.402344 "/>
</g>
</svg>
