<?xml version="1.0" encoding="UTF-8"?>
<svg xmlns="http://www.w3.org/2000/svg" xmlns:xlink="http://www.w3.org/1999/xlink" width="24pt" height="24pt" viewBox="0 0 24 24" version="1.1">
<g id="surface1">
<path style=" stroke:none;fill-rule:nonzero;fill:rgb(0%,0%,0%);fill-opacity:1;" d="M 19.792969 14.839844 C 19.792969 12.691406 18.035156 11.296875 16.332031 9.945312 C 14.824219 8.75 13.402344 7.621094 13.234375 6.066406 C 13.226562 5.859375 13.164062 3.390625 13.84375 1.320312 C 13.878906 1.214844 13.855469 1.09375 13.785156 1.007812 C 13.710938 0.921875 13.597656 0.878906 13.484375 0.894531 C 13.035156 0.957031 12.617188 1.171875 12.300781 1.5 C 12.1875 1.617188 12.085938 1.746094 12 1.878906 C 11.910156 1.742188 11.808594 1.617188 11.695312 1.496094 C 11.378906 1.171875 10.964844 0.957031 10.515625 0.894531 C 10.402344 0.878906 10.289062 0.921875 10.214844 1.007812 C 10.144531 1.09375 10.121094 1.214844 10.15625 1.320312 C 10.835938 3.390625 10.773438 5.863281 10.765625 6.066406 C 10.597656 7.621094 9.175781 8.75 7.667969 9.945312 C 5.964844 11.296875 4.207031 12.691406 4.207031 14.839844 C 4.207031 18.652344 7.195312 21.460938 11.398438 21.707031 C 11.265625 22.011719 11.097656 22.300781 10.902344 22.570312 C 10.789062 22.703125 10.804688 22.902344 10.929688 23.019531 C 11.058594 23.136719 11.253906 23.136719 11.378906 23.015625 C 11.394531 23.007812 11.402344 22.992188 11.414062 22.980469 C 11.441406 22.945312 11.546875 22.804688 11.671875 22.601562 L 11.671875 22.78125 C 11.671875 22.964844 11.820312 23.109375 12 23.109375 C 12.179688 23.109375 12.328125 22.964844 12.328125 22.78125 L 12.328125 22.601562 C 12.453125 22.804688 12.558594 22.945312 12.585938 22.980469 C 12.597656 22.992188 12.605469 23.007812 12.621094 23.015625 L 12.621094 23.019531 C 12.683594 23.078125 12.769531 23.113281 12.855469 23.109375 C 12.941406 23.105469 13.023438 23.070312 13.085938 23.007812 C 13.195312 22.886719 13.203125 22.703125 13.101562 22.574219 C 12.902344 22.304688 12.734375 22.015625 12.601562 21.707031 C 16.804688 21.460938 19.792969 18.652344 19.792969 14.839844 Z M 12.003906 21.070312 L 11.996094 21.070312 C 11.367188 21.058594 10.5 18.894531 10.5 14.839844 C 10.5 12.902344 10.90625 11.578125 11.300781 10.300781 C 11.617188 9.363281 11.851562 8.402344 12 7.429688 C 12.148438 8.402344 12.382812 9.363281 12.699219 10.300781 C 13.089844 11.578125 13.5 12.902344 13.5 14.839844 C 13.5 18.894531 12.632812 21.058594 12.003906 21.070312 Z M 10.675781 10.105469 C 10.265625 11.433594 9.84375 12.800781 9.84375 14.839844 C 9.84375 17.238281 10.171875 19.65625 10.878906 20.886719 C 8.949219 20.234375 7.640625 17.890625 7.640625 14.839844 C 7.640625 12.964844 8.625 11.722656 9.664062 10.40625 C 10.234375 9.691406 10.8125 8.957031 11.21875 8.117188 C 11.074219 8.816406 10.878906 9.453125 10.675781 10.105469 Z M 13.121094 20.886719 C 13.828125 19.65625 14.15625 17.242188 14.15625 14.839844 C 14.15625 12.800781 13.734375 11.433594 13.324219 10.105469 C 13.121094 9.453125 12.925781 8.816406 12.78125 8.117188 C 13.191406 8.957031 13.769531 9.691406 14.335938 10.40625 C 15.375 11.722656 16.359375 12.964844 16.359375 14.839844 C 16.359375 17.890625 15.050781 20.234375 13.121094 20.886719 Z M 12.769531 1.960938 C 12.847656 1.878906 12.9375 1.804688 13.035156 1.742188 C 12.878906 2.371094 12.761719 3.007812 12.691406 3.652344 C 12.59375 3.316406 12.488281 2.96875 12.367188 2.621094 C 12.363281 2.609375 12.359375 2.597656 12.355469 2.585938 C 12.457031 2.355469 12.597656 2.144531 12.769531 1.960938 Z M 11.226562 1.957031 C 11.460938 2.210938 11.640625 2.507812 11.746094 2.835938 C 12.070312 3.792969 12.324219 4.773438 12.511719 5.765625 L 11.429688 5.765625 C 11.4375 4.410156 11.28125 3.058594 10.964844 1.742188 C 11.058594 1.804688 11.148438 1.875 11.226562 1.957031 Z M 4.863281 14.839844 C 4.863281 13.011719 6.425781 11.773438 8.074219 10.460938 C 8.835938 9.890625 9.546875 9.261719 10.203125 8.574219 C 9.890625 9.0625 9.523438 9.527344 9.148438 10 C 8.085938 11.347656 6.984375 12.738281 6.984375 14.839844 C 6.984375 17.339844 7.8125 19.40625 9.140625 20.605469 C 6.550781 19.699219 4.863281 17.546875 4.863281 14.839844 Z M 14.859375 20.605469 C 16.1875 19.40625 17.015625 17.335938 17.015625 14.839844 C 17.015625 12.738281 15.914062 11.347656 14.847656 10 C 14.472656 9.527344 14.109375 9.0625 13.792969 8.574219 C 14.453125 9.261719 15.164062 9.890625 15.925781 10.460938 C 17.574219 11.773438 19.136719 13.011719 19.136719 14.839844 C 19.136719 17.546875 17.449219 19.699219 14.859375 20.605469 Z M 14.859375 20.605469 "/>
<path style=" stroke:none;fill-rule:nonzero;fill:rgb(0%,0%,0%);fill-opacity:1;" d="M 18.339844 14.511719 C 18.15625 14.511719 18.011719 14.660156 18.011719 14.839844 C 18.011719 15.324219 17.941406 15.804688 17.804688 16.265625 C 17.761719 16.433594 17.859375 16.609375 18.027344 16.660156 C 18.195312 16.710938 18.371094 16.621094 18.429688 16.453125 C 18.589844 15.929688 18.667969 15.386719 18.667969 14.839844 C 18.667969 14.660156 18.519531 14.511719 18.339844 14.511719 Z M 18.339844 14.511719 "/>
</g>
</svg>
