<?xml version="1.0" encoding="UTF-8"?>
<svg xmlns="http://www.w3.org/2000/svg" xmlns:xlink="http://www.w3.org/1999/xlink" width="24pt" height="24pt" viewBox="0 0 24 24" version="1.1">
<g id="surface1">
<path style=" stroke:none;fill-rule:nonzero;fill:rgb(0%,0%,0%);fill-opacity:1;" d="M 4.730469 23.199219 C 4.640625 23.113281 4.523438 23.0625 4.398438 23.0625 C 4.273438 23.0625 4.152344 23.113281 4.066406 23.199219 C 3.980469 23.285156 3.929688 23.40625 3.929688 23.53125 C 3.929688 23.65625 3.980469 23.777344 4.066406 23.863281 C 4.152344 23.949219 4.273438 24 4.398438 24 C 4.523438 24 4.640625 23.949219 4.730469 23.863281 C 4.816406 23.777344 4.867188 23.65625 4.867188 23.53125 C 4.867188 23.40625 4.816406 23.285156 4.730469 23.199219 Z M 4.730469 23.199219 "/>
<path style=" stroke:none;fill-rule:nonzero;fill:rgb(0%,0%,0%);fill-opacity:1;" d="M 20.804688 18.210938 C 20.582031 18.082031 20.296875 18.15625 20.164062 18.382812 L 20.152344 18.402344 C 20.023438 18.625 20.101562 18.914062 20.324219 19.042969 C 20.398438 19.085938 20.480469 19.105469 20.558594 19.105469 C 20.722656 19.105469 20.878906 19.023438 20.964844 18.871094 L 20.976562 18.851562 C 21.105469 18.628906 21.03125 18.339844 20.804688 18.210938 Z M 20.804688 18.210938 "/>
<path style=" stroke:none;fill-rule:nonzero;fill:rgb(0%,0%,0%);fill-opacity:1;" d="M 22.726562 11.671875 C 22.714844 11.519531 22.625 11.382812 22.492188 11.304688 C 22.359375 11.226562 22.199219 11.222656 22.058594 11.285156 C 21.554688 11.523438 21.0625 11.804688 20.589844 12.132812 C 21.285156 9.246094 21.332031 6.359375 20.710938 3.957031 C 20.667969 3.792969 20.542969 3.664062 20.378906 3.621094 C 20.214844 3.578125 20.042969 3.625 19.921875 3.746094 C 19.164062 4.519531 18.46875 5.433594 17.855469 6.457031 C 17.859375 6.347656 17.863281 6.234375 17.863281 6.121094 C 17.863281 3.914062 17.292969 1.816406 16.261719 0.214844 C 16.175781 0.0820312 16.027344 0 15.867188 0 C 15.710938 0 15.5625 0.0820312 15.472656 0.214844 C 14.824219 1.222656 14.355469 2.441406 14.097656 3.761719 C 13.207031 2.996094 12.046875 2.53125 10.78125 2.53125 C 10.1875 2.53125 9.617188 2.632812 9.085938 2.824219 C 9.078125 2.824219 9.074219 2.824219 9.066406 2.824219 C 8.441406 1.640625 7.507812 0.886719 6.40625 0.699219 C 5.222656 0.496094 4.003906 0.960938 2.972656 2.011719 C 2.835938 2.152344 2.800781 2.359375 2.882812 2.539062 C 3.144531 3.101562 3.46875 3.574219 3.847656 3.953125 C 3.683594 3.996094 3.527344 4.050781 3.371094 4.117188 C 2.277344 4.605469 1.519531 5.667969 1.246094 7.117188 C 1.207031 7.308594 1.296875 7.5 1.460938 7.601562 C 1.867188 7.851562 2.277344 8.035156 2.679688 8.152344 C 2.65625 8.175781 2.632812 8.199219 2.605469 8.226562 C 1.761719 9.070312 1.4375 10.335938 1.703125 11.785156 C 1.738281 11.976562 1.890625 12.128906 2.082031 12.164062 C 2.191406 12.183594 2.304688 12.199219 2.414062 12.214844 C 1.710938 13.054688 1.460938 14.230469 1.703125 15.5625 C 1.738281 15.753906 1.890625 15.902344 2.082031 15.9375 C 2.410156 16 2.734375 16.027344 3.042969 16.027344 C 3.425781 16.027344 3.789062 15.980469 4.125 15.890625 C 4.054688 16.15625 4.019531 16.429688 4.019531 16.707031 C 4.019531 17.90625 4.6875 19.027344 5.898438 19.863281 C 5.980469 19.917969 6.074219 19.949219 6.164062 19.949219 C 6.257812 19.949219 6.351562 19.917969 6.433594 19.863281 C 7.644531 19.027344 8.3125 17.90625 8.3125 16.707031 C 8.3125 16.429688 8.277344 16.15625 8.207031 15.890625 C 8.542969 15.980469 8.90625 16.027344 9.289062 16.027344 C 9.597656 16.027344 9.921875 16 10.25 15.9375 C 10.441406 15.902344 10.59375 15.753906 10.628906 15.5625 C 10.871094 14.230469 10.621094 13.050781 9.917969 12.214844 C 10.027344 12.199219 10.140625 12.183594 10.25 12.164062 C 10.441406 12.128906 10.59375 11.976562 10.628906 11.785156 C 10.84375 10.613281 10.671875 9.5625 10.152344 8.753906 C 10.375 8.746094 10.605469 8.722656 10.839844 8.679688 C 11.035156 8.644531 11.183594 8.492188 11.21875 8.300781 C 11.273438 7.996094 11.300781 7.699219 11.300781 7.414062 C 11.402344 7.421875 11.5 7.425781 11.605469 7.425781 C 11.886719 7.425781 12.179688 7.398438 12.476562 7.34375 C 12.671875 7.308594 12.820312 7.160156 12.855469 6.964844 C 13.097656 5.640625 12.800781 4.480469 12.023438 3.703125 C 12.003906 3.679688 11.980469 3.660156 11.957031 3.636719 C 13.675781 4.148438 14.929688 5.738281 14.929688 7.617188 L 14.929688 16.078125 C 14.378906 14.890625 13.609375 13.851562 12.671875 13.066406 C 12.558594 12.96875 12.40625 12.933594 12.261719 12.96875 C 12.117188 13 11.996094 13.101562 11.9375 13.238281 C 11.207031 14.933594 11.0625 16.964844 11.535156 18.957031 C 11.90625 20.527344 12.628906 21.949219 13.613281 23.0625 L 6.164062 23.0625 C 5.90625 23.0625 5.695312 23.273438 5.695312 23.53125 C 5.695312 23.789062 5.90625 24 6.164062 24 L 21.164062 24 C 21.425781 24 21.632812 23.789062 21.632812 23.53125 C 21.632812 23.273438 21.425781 23.0625 21.164062 23.0625 L 17.171875 23.0625 C 18.140625 22.386719 19.042969 21.535156 19.832031 20.542969 C 19.992188 20.339844 19.957031 20.042969 19.753906 19.882812 C 19.550781 19.722656 19.257812 19.757812 19.09375 19.960938 C 18.160156 21.144531 17.054688 22.105469 15.867188 22.777344 L 15.867188 22.746094 C 15.863281 21.730469 16.023438 20.675781 16.332031 19.632812 C 16.335938 19.617188 16.339844 19.605469 16.34375 19.59375 C 16.621094 18.664062 17.019531 17.742188 17.527344 16.859375 C 18.222656 15.660156 19.078125 14.601562 20.042969 13.746094 C 20.058594 13.734375 20.074219 13.71875 20.089844 13.703125 C 20.640625 13.222656 21.21875 12.804688 21.824219 12.460938 C 21.835938 13.835938 21.550781 15.285156 20.984375 16.695312 C 20.890625 16.9375 21.007812 17.210938 21.246094 17.304688 C 21.488281 17.402344 21.757812 17.285156 21.855469 17.046875 C 22.574219 15.25 22.875 13.394531 22.726562 11.671875 Z M 6.246094 1.621094 C 7.027344 1.757812 7.710938 2.308594 8.195312 3.183594 C 7.445312 3.847656 6.617188 4.136719 5.832031 4.003906 C 5.050781 3.867188 4.367188 3.316406 3.882812 2.441406 C 4.632812 1.777344 5.460938 1.488281 6.246094 1.621094 Z M 7.105469 7.230469 C 6.957031 7.230469 6.804688 7.238281 6.652344 7.253906 C 6.675781 6.988281 6.722656 6.726562 6.792969 6.476562 C 6.867188 6.746094 6.972656 7 7.105469 7.230469 Z M 2.238281 6.964844 C 2.496094 6 3.023438 5.296875 3.75 4.976562 C 4.476562 4.65625 5.351562 4.734375 6.238281 5.195312 C 5.984375 6.164062 5.457031 6.863281 4.730469 7.1875 C 4.597656 7.242188 4.464844 7.289062 4.324219 7.320312 C 4.304688 7.324219 4.285156 7.328125 4.265625 7.332031 C 3.644531 7.457031 2.945312 7.335938 2.238281 6.964844 Z M 3.269531 8.886719 C 3.585938 8.574219 3.988281 8.359375 4.457031 8.25 C 4.460938 8.25 4.46875 8.25 4.476562 8.246094 C 4.839844 8.164062 5.242188 8.148438 5.671875 8.195312 C 5.78125 9.191406 5.539062 10.035156 4.980469 10.597656 C 4.707031 10.867188 4.367188 11.066406 3.980469 11.183594 C 3.964844 11.1875 3.949219 11.191406 3.933594 11.195312 C 3.53125 11.3125 3.070312 11.34375 2.578125 11.289062 C 2.46875 10.292969 2.707031 9.449219 3.269531 8.886719 Z M 2.578125 15.0625 C 2.46875 14.070312 2.707031 13.222656 3.269531 12.664062 C 3.546875 12.382812 3.898438 12.183594 4.296875 12.066406 C 4.304688 12.066406 4.308594 12.066406 4.3125 12.0625 C 4.71875 11.949219 5.175781 11.914062 5.671875 11.96875 C 5.769531 12.84375 5.59375 13.597656 5.171875 14.152344 C 5.074219 14.246094 4.984375 14.347656 4.898438 14.445312 C 4.335938 14.953125 3.527344 15.167969 2.578125 15.0625 Z M 6.164062 18.894531 C 5.382812 18.269531 4.957031 17.503906 4.957031 16.707031 C 4.957031 16.136719 5.179688 15.582031 5.589844 15.082031 C 5.605469 15.066406 5.625 15.050781 5.640625 15.035156 C 5.722656 14.953125 5.796875 14.871094 5.867188 14.78125 C 5.960938 14.691406 6.058594 14.605469 6.167969 14.519531 C 6.273438 14.605469 6.371094 14.691406 6.464844 14.78125 C 6.535156 14.871094 6.609375 14.953125 6.691406 15.035156 C 6.707031 15.050781 6.726562 15.066406 6.742188 15.082031 C 7.152344 15.582031 7.375 16.136719 7.375 16.707031 C 7.375 17.503906 6.949219 18.269531 6.164062 18.894531 Z M 9.753906 15.0625 C 8.804688 15.167969 7.996094 14.953125 7.433594 14.445312 C 7.347656 14.347656 7.257812 14.246094 7.160156 14.152344 C 6.738281 13.597656 6.5625 12.84375 6.660156 11.96875 C 7.15625 11.914062 7.613281 11.945312 8.015625 12.0625 C 8.023438 12.066406 8.03125 12.066406 8.039062 12.070312 C 8.4375 12.1875 8.785156 12.386719 9.0625 12.664062 C 9.625 13.222656 9.863281 14.070312 9.753906 15.0625 Z M 9.753906 11.289062 C 9.257812 11.34375 8.800781 11.3125 8.398438 11.195312 C 8.382812 11.191406 8.371094 11.1875 8.355469 11.183594 C 7.964844 11.066406 7.625 10.871094 7.351562 10.597656 C 6.792969 10.035156 6.550781 9.191406 6.660156 8.195312 C 7.65625 8.085938 8.5 8.328125 9.0625 8.886719 C 9.625 9.449219 9.863281 10.292969 9.753906 11.289062 Z M 10.34375 7.804688 C 9.472656 7.890625 8.734375 7.675781 8.238281 7.183594 C 7.746094 6.691406 7.53125 5.953125 7.621094 5.082031 C 8.496094 4.992188 9.234375 5.207031 9.726562 5.699219 C 10.21875 6.191406 10.433594 6.929688 10.34375 7.804688 Z M 11.980469 6.46875 C 11.703125 6.496094 11.4375 6.496094 11.183594 6.460938 C 11.042969 5.910156 10.777344 5.425781 10.386719 5.035156 C 9.894531 4.542969 9.25 4.246094 8.503906 4.152344 C 8.75 3.988281 9.019531 3.851562 9.300781 3.742188 C 10.152344 3.664062 10.878906 3.878906 11.363281 4.367188 C 11.855469 4.859375 12.070312 5.597656 11.980469 6.46875 Z M 14.566406 22.710938 C 13.558594 21.679688 12.8125 20.296875 12.445312 18.742188 C 12.078125 17.1875 12.121094 15.617188 12.5625 14.242188 C 13.570312 15.273438 14.3125 16.660156 14.679688 18.214844 C 15.046875 19.765625 15.003906 21.339844 14.566406 22.710938 Z M 14.902344 4.636719 C 14.90625 4.617188 14.910156 4.601562 14.914062 4.582031 C 15.070312 3.421875 15.394531 2.339844 15.867188 1.410156 C 16.554688 2.753906 16.925781 4.398438 16.925781 6.121094 C 16.925781 7.25 16.765625 8.34375 16.464844 9.34375 C 16.351562 9.636719 16.242188 9.933594 16.144531 10.238281 C 16.058594 10.441406 15.96875 10.640625 15.867188 10.835938 L 15.867188 7.617188 C 15.867188 6.503906 15.511719 5.476562 14.902344 4.636719 Z M 19.554688 12.398438 C 19.492188 12.636719 19.421875 12.875 19.347656 13.113281 C 18.339844 14.023438 17.441406 15.132812 16.71875 16.390625 C 16.488281 16.789062 16.28125 17.191406 16.09375 17.597656 C 15.953125 15.726562 16.160156 13.664062 16.703125 11.632812 C 16.800781 11.269531 16.910156 10.910156 17.023438 10.558594 C 17.144531 10.265625 17.253906 9.960938 17.347656 9.648438 C 18.027344 7.890625 18.929688 6.320312 19.992188 5.0625 C 20.390625 7.273438 20.238281 9.839844 19.554688 12.398438 Z M 19.554688 12.398438 "/>
</g>
</svg>
