<?xml version="1.0" encoding="UTF-8"?>
<svg xmlns="http://www.w3.org/2000/svg" xmlns:xlink="http://www.w3.org/1999/xlink" width="24pt" height="24pt" viewBox="0 0 24 24" version="1.1">
<g id="surface1">
<path style=" stroke:none;fill-rule:nonzero;fill:rgb(0%,0%,0%);fill-opacity:1;" d="M 23.839844 4.996094 C 23.53125 3.335938 22.714844 2.117188 21.265625 1.164062 C 20.355469 0.566406 19.28125 0.179688 18.15625 0.0507812 C 17.015625 -0.0820312 15.878906 0.0546875 14.871094 0.445312 C 13.023438 1.164062 11.71875 2.679688 11.203125 4.722656 C 10.898438 5.90625 10.382812 6.789062 9.800781 7.554688 C 8.886719 6.777344 7.699219 6.316406 6.40625 6.246094 C 5.011719 6.167969 3.613281 6.539062 2.476562 7.289062 C 1.164062 8.152344 0.421875 9.253906 0.144531 10.757812 C -0.105469 12.105469 0.015625 13.648438 0.167969 15.597656 C 0.191406 15.890625 0.214844 16.195312 0.238281 16.503906 C 0.378906 18.667969 1.632812 20.648438 3.761719 22.085938 C 5.554688 23.289062 7.820312 24 9.867188 24 C 9.9375 24 10.003906 24 10.070312 23.996094 C 11.546875 23.960938 12.855469 23.429688 13.851562 22.453125 C 14.671875 21.648438 15.234375 20.578125 15.457031 19.417969 C 16.996094 19.082031 18.527344 18.441406 19.832031 17.5625 C 22.191406 15.972656 23.578125 13.777344 23.734375 11.382812 C 23.761719 11.039062 23.789062 10.703125 23.8125 10.375 C 23.984375 8.207031 24.117188 6.492188 23.839844 4.996094 Z M 10.050781 23.058594 C 8.667969 23.089844 7.160156 22.757812 5.789062 22.140625 C 6.222656 21.824219 6.78125 21.335938 6.957031 20.816406 C 7.039062 20.570312 6.90625 20.304688 6.660156 20.222656 C 6.414062 20.140625 6.148438 20.273438 6.066406 20.519531 C 5.953125 20.855469 5.300781 21.371094 4.835938 21.648438 C 4.648438 21.542969 4.464844 21.425781 4.285156 21.308594 C 2.402344 20.039062 1.296875 18.308594 1.171875 16.4375 C 1.148438 16.125 1.125 15.820312 1.101562 15.523438 C 1.007812 14.3125 0.925781 13.261719 0.941406 12.335938 C 1.054688 12.351562 1.179688 12.359375 1.308594 12.359375 C 1.917969 12.359375 2.628906 12.207031 3.050781 11.898438 C 3.257812 11.746094 3.304688 11.453125 3.152344 11.242188 C 3 11.035156 2.707031 10.988281 2.496094 11.140625 C 2.191406 11.367188 1.421875 11.46875 0.996094 11.402344 C 1.160156 9.992188 1.6875 8.929688 2.992188 8.070312 C 4.710938 6.941406 7.4375 6.75 9.214844 8.285156 C 9.105469 8.414062 8.992188 8.542969 8.882812 8.671875 C 8.5 9.113281 8.140625 9.53125 7.8125 9.996094 C 6.914062 11.273438 6.585938 12.910156 6.859375 14.496094 C 6.855469 14.496094 6.855469 14.5 6.855469 14.5 C 6.574219 14.746094 5.679688 14.871094 5.140625 14.863281 C 5.140625 14.863281 5.140625 14.863281 5.136719 14.863281 C 4.878906 14.863281 4.671875 15.070312 4.667969 15.328125 C 4.667969 15.585938 4.875 15.796875 5.132812 15.800781 C 5.136719 15.800781 5.144531 15.800781 5.152344 15.800781 C 5.320312 15.800781 6.371094 15.785156 7.09375 15.445312 C 7.195312 15.75 7.316406 16.046875 7.460938 16.339844 C 8.507812 18.410156 10.464844 19.628906 12.832031 19.683594 C 12.90625 19.6875 12.980469 19.6875 13.058594 19.6875 C 13.515625 19.6875 13.984375 19.652344 14.457031 19.59375 C 13.984375 21.363281 12.519531 23.003906 10.050781 23.058594 Z M 22.800781 11.316406 C 22.800781 11.320312 22.800781 11.320312 22.800781 11.320312 C 22.664062 13.421875 21.421875 15.359375 19.304688 16.785156 C 18.660156 17.21875 17.957031 17.589844 17.222656 17.890625 C 16.992188 17.28125 16.40625 16.621094 15.957031 16.398438 C 15.726562 16.28125 15.445312 16.375 15.328125 16.605469 C 15.214844 16.839844 15.308594 17.121094 15.539062 17.234375 C 15.789062 17.363281 16.207031 17.855469 16.34375 18.210938 C 15.183594 18.582031 13.980469 18.773438 12.855469 18.746094 C 10.84375 18.699219 9.183594 17.667969 8.300781 15.917969 C 7.410156 14.152344 7.519531 12.039062 8.578125 10.539062 C 8.878906 10.109375 9.226562 9.707031 9.59375 9.28125 C 10.535156 8.191406 11.601562 6.957031 12.109375 4.953125 C 12.476562 3.511719 13.207031 2.59375 13.972656 2.007812 C 14.308594 2.488281 15.003906 2.984375 15.558594 3.113281 C 15.59375 3.121094 15.628906 3.125 15.664062 3.125 C 15.875 3.125 16.070312 2.976562 16.121094 2.761719 C 16.175781 2.507812 16.019531 2.257812 15.769531 2.199219 C 15.4375 2.121094 14.96875 1.773438 14.769531 1.515625 C 14.921875 1.4375 15.066406 1.375 15.207031 1.320312 C 15.867188 1.066406 16.582031 0.941406 17.308594 0.941406 C 18.515625 0.941406 19.742188 1.285156 20.75 1.949219 C 22.484375 3.085938 22.996094 4.546875 23.054688 6.578125 C 23.050781 6.582031 23.042969 6.585938 23.039062 6.589844 C 22.589844 6.917969 21.425781 7.042969 20.945312 6.882812 C 20.699219 6.800781 20.4375 6.933594 20.355469 7.179688 C 20.273438 7.425781 20.40625 7.691406 20.648438 7.773438 C 20.878906 7.847656 21.183594 7.886719 21.515625 7.886719 C 22.019531 7.886719 22.589844 7.800781 23.050781 7.625 C 23.023438 8.433594 22.957031 9.320312 22.878906 10.300781 C 22.855469 10.632812 22.828125 10.96875 22.800781 11.316406 Z M 22.800781 11.316406 "/>
<path style=" stroke:none;fill-rule:nonzero;fill:rgb(0%,0%,0%);fill-opacity:1;" d="M 13.035156 8.300781 C 12.777344 8.316406 12.582031 8.539062 12.597656 8.796875 C 12.613281 9.054688 12.835938 9.253906 13.09375 9.238281 C 13.597656 9.207031 14.6875 9.625 15.035156 10.058594 C 15.128906 10.171875 15.265625 10.234375 15.402344 10.234375 C 15.503906 10.234375 15.609375 10.199219 15.695312 10.128906 C 15.898438 9.96875 15.929688 9.671875 15.765625 9.472656 C 15.214844 8.785156 13.804688 8.253906 13.035156 8.300781 Z M 13.035156 8.300781 "/>
<path style=" stroke:none;fill-rule:nonzero;fill:rgb(0%,0%,0%);fill-opacity:1;" d="M 11.472656 13.285156 C 11.625 13.074219 11.578125 12.78125 11.371094 12.628906 C 10.8125 12.222656 9.691406 12.121094 9.132812 12.304688 C 8.886719 12.386719 8.753906 12.652344 8.835938 12.898438 C 8.917969 13.144531 9.183594 13.277344 9.429688 13.195312 C 9.734375 13.09375 10.53125 13.175781 10.816406 13.386719 C 10.898438 13.445312 10.996094 13.476562 11.09375 13.476562 C 11.238281 13.476562 11.378906 13.410156 11.472656 13.285156 Z M 11.472656 13.285156 "/>
<path style=" stroke:none;fill-rule:nonzero;fill:rgb(0%,0%,0%);fill-opacity:1;" d="M 17.847656 5.175781 C 17.589844 5.175781 17.378906 5.386719 17.378906 5.644531 C 17.378906 5.902344 17.589844 6.113281 17.847656 6.113281 C 18.105469 6.113281 18.316406 5.902344 18.316406 5.644531 C 18.316406 5.386719 18.105469 5.175781 17.847656 5.175781 Z M 17.847656 5.175781 "/>
<path style=" stroke:none;fill-rule:nonzero;fill:rgb(0%,0%,0%);fill-opacity:1;" d="M 19.253906 11.269531 C 18.996094 11.269531 18.785156 11.480469 18.785156 11.738281 C 18.785156 11.996094 18.996094 12.207031 19.253906 12.207031 C 19.511719 12.207031 19.722656 11.996094 19.722656 11.738281 C 19.722656 11.480469 19.511719 11.269531 19.253906 11.269531 Z M 19.253906 11.269531 "/>
<path style=" stroke:none;fill-rule:nonzero;fill:rgb(0%,0%,0%);fill-opacity:1;" d="M 15.128906 12.582031 C 14.871094 12.582031 14.660156 12.792969 14.660156 13.050781 C 14.660156 13.308594 14.871094 13.519531 15.128906 13.519531 C 15.390625 13.519531 15.597656 13.308594 15.597656 13.050781 C 15.597656 12.792969 15.390625 12.582031 15.128906 12.582031 Z M 15.128906 12.582031 "/>
<path style=" stroke:none;fill-rule:nonzero;fill:rgb(0%,0%,0%);fill-opacity:1;" d="M 4.441406 17.175781 C 4.183594 17.175781 3.972656 17.382812 3.972656 17.644531 C 3.972656 17.902344 4.183594 18.113281 4.441406 18.113281 C 4.703125 18.113281 4.910156 17.902344 4.910156 17.644531 C 4.910156 17.382812 4.703125 17.175781 4.441406 17.175781 Z M 4.441406 17.175781 "/>
<path style=" stroke:none;fill-rule:nonzero;fill:rgb(0%,0%,0%);fill-opacity:1;" d="M 5.753906 9.394531 C 6.015625 9.394531 6.222656 9.183594 6.222656 8.925781 C 6.222656 8.667969 6.015625 8.457031 5.753906 8.457031 C 5.496094 8.457031 5.285156 8.667969 5.285156 8.925781 C 5.285156 9.183594 5.496094 9.394531 5.753906 9.394531 Z M 5.753906 9.394531 "/>
<path style=" stroke:none;fill-rule:nonzero;fill:rgb(0%,0%,0%);fill-opacity:1;" d="M 10.535156 20.457031 C 10.277344 20.457031 10.066406 20.664062 10.066406 20.925781 C 10.066406 21.183594 10.277344 21.394531 10.535156 21.394531 C 10.796875 21.394531 11.003906 21.183594 11.003906 20.925781 C 11.003906 20.664062 10.796875 20.457031 10.535156 20.457031 Z M 10.535156 20.457031 "/>
<path style=" stroke:none;fill-rule:nonzero;fill:rgb(0%,0%,0%);fill-opacity:1;" d="M 11.285156 15.113281 C 11.027344 15.113281 10.816406 15.324219 10.816406 15.582031 C 10.816406 15.839844 11.027344 16.050781 11.285156 16.050781 C 11.546875 16.050781 11.753906 15.839844 11.753906 15.582031 C 11.753906 15.324219 11.546875 15.113281 11.285156 15.113281 Z M 11.285156 15.113281 "/>
</g>
</svg>
