<?xml version="1.0" encoding="UTF-8"?>
<svg xmlns="http://www.w3.org/2000/svg" xmlns:xlink="http://www.w3.org/1999/xlink" width="24pt" height="24pt" viewBox="0 0 24 24" version="1.1">
<g id="surface1">
<path style=" stroke:none;fill-rule:nonzero;fill:rgb(0%,0%,0%);fill-opacity:1;" d="M 5.371094 23.503906 C 5.105469 23.503906 4.847656 23.421875 4.621094 23.261719 C 4.207031 22.960938 4.015625 22.445312 4.128906 21.945312 L 5.671875 15.148438 L 0.4375 10.558594 C 0.0507812 10.222656 -0.09375 9.6875 0.0625 9.203125 C 0.21875 8.71875 0.648438 8.371094 1.160156 8.324219 L 8.085938 7.695312 L 10.824219 1.289062 C 11.023438 0.820312 11.484375 0.515625 11.996094 0.515625 C 12.507812 0.515625 12.964844 0.820312 13.167969 1.289062 L 15.90625 7.695312 L 22.832031 8.324219 C 23.339844 8.371094 23.769531 8.71875 23.929688 9.203125 C 24.085938 9.6875 23.941406 10.222656 23.554688 10.558594 L 18.320312 15.148438 L 19.863281 21.945312 C 19.976562 22.445312 19.785156 22.960938 19.367188 23.261719 C 18.953125 23.5625 18.402344 23.585938 17.96875 23.324219 L 11.996094 19.753906 L 6.023438 23.324219 C 5.820312 23.445312 5.597656 23.503906 5.371094 23.503906 Z M 11.996094 18.214844 C 12.222656 18.214844 12.445312 18.277344 12.648438 18.398438 L 18.285156 21.769531 L 16.828125 15.351562 C 16.722656 14.894531 16.878906 14.417969 17.230469 14.109375 L 22.175781 9.773438 L 15.636719 9.179688 C 15.164062 9.136719 14.761719 8.839844 14.578125 8.40625 L 11.996094 2.359375 L 9.410156 8.410156 C 9.230469 8.839844 8.824219 9.136719 8.355469 9.179688 L 1.816406 9.773438 L 6.757812 14.105469 C 7.109375 14.417969 7.265625 14.894531 7.160156 15.351562 L 5.707031 21.765625 L 11.339844 18.398438 C 11.542969 18.277344 11.769531 18.214844 11.996094 18.214844 Z M 8.03125 7.820312 C 8.03125 7.820312 8.03125 7.820312 8.03125 7.824219 Z M 15.957031 7.816406 L 15.957031 7.820312 C 15.957031 7.820312 15.957031 7.820312 15.957031 7.816406 Z M 15.957031 7.816406 "/>
</g>
</svg>
