<?xml version="1.0" encoding="UTF-8"?>
<svg xmlns="http://www.w3.org/2000/svg" xmlns:xlink="http://www.w3.org/1999/xlink" width="24pt" height="24pt" viewBox="0 0 24 24" version="1.1">
<g id="surface1">
<path style=" stroke:none;fill-rule:nonzero;fill:rgb(0%,0%,0%);fill-opacity:1;" d="M 14.265625 5.566406 C 12.644531 4.492188 10.472656 4.710938 9.09375 6.089844 C 7.71875 7.464844 7.5 9.640625 8.570312 11.261719 C 8.640625 11.363281 8.75 11.417969 8.863281 11.417969 C 8.933594 11.417969 9 11.398438 9.058594 11.359375 C 9.222656 11.253906 9.265625 11.035156 9.15625 10.871094 C 8.269531 9.53125 8.449219 7.726562 9.589844 6.585938 C 10.734375 5.445312 12.535156 5.261719 13.878906 6.152344 C 14.039062 6.257812 14.257812 6.214844 14.367188 6.054688 C 14.472656 5.890625 14.429688 5.671875 14.265625 5.566406 Z M 14.265625 5.566406 "/>
<path style=" stroke:none;fill-rule:nonzero;fill:rgb(0%,0%,0%);fill-opacity:1;" d="M 15.429688 6.726562 C 15.320312 6.566406 15.101562 6.519531 14.941406 6.628906 C 14.777344 6.734375 14.734375 6.953125 14.84375 7.117188 C 15.730469 8.457031 15.550781 10.261719 14.410156 11.402344 C 13.265625 12.542969 11.464844 12.726562 10.121094 11.835938 C 9.960938 11.730469 9.742188 11.773438 9.632812 11.933594 C 9.527344 12.097656 9.570312 12.316406 9.734375 12.421875 C 10.421875 12.878906 11.210938 13.101562 11.992188 13.101562 C 13.058594 13.101562 14.113281 12.691406 14.90625 11.898438 C 16.28125 10.523438 16.5 8.347656 15.429688 6.726562 Z M 15.429688 6.726562 "/>
<path style=" stroke:none;fill-rule:nonzero;fill:rgb(0%,0%,0%);fill-opacity:1;" d="M 21.566406 15.554688 C 21.484375 15.464844 21.355469 15.421875 21.234375 15.449219 C 17.96875 16.148438 15.921875 17.636719 14.777344 18.765625 C 13.675781 19.851562 13.183594 20.808594 13.066406 21.054688 C 12.960938 21.167969 12.65625 21.5 12.351562 21.871094 L 12.351562 17.761719 C 12.566406 17.492188 13.121094 16.734375 13.363281 15.84375 C 14.046875 16.730469 15.085938 17.261719 15.148438 17.292969 C 15.199219 17.316406 15.253906 17.328125 15.308594 17.328125 C 15.351562 17.328125 15.398438 17.320312 15.441406 17.304688 C 15.535156 17.265625 15.609375 17.1875 15.640625 17.089844 C 15.664062 17.019531 16.023438 15.914062 15.878906 14.800781 C 16.851562 15.355469 18.011719 15.449219 18.085938 15.457031 C 18.09375 15.457031 18.101562 15.457031 18.109375 15.457031 C 18.203125 15.457031 18.292969 15.417969 18.359375 15.355469 C 18.433594 15.28125 18.46875 15.179688 18.460938 15.078125 C 18.457031 15.007812 18.363281 13.847656 17.804688 12.875 C 17.988281 12.898438 18.171875 12.90625 18.351562 12.90625 C 19.253906 12.90625 20.039062 12.652344 20.09375 12.636719 C 20.191406 12.601562 20.269531 12.53125 20.308594 12.4375 C 20.347656 12.339844 20.34375 12.234375 20.296875 12.144531 C 20.265625 12.078125 19.734375 11.042969 18.847656 10.355469 C 19.929688 10.0625 20.816406 9.308594 20.871094 9.261719 C 20.949219 9.191406 20.992188 9.097656 20.992188 8.992188 C 20.992188 8.890625 20.949219 8.792969 20.871094 8.726562 C 20.816406 8.679688 19.929688 7.925781 18.847656 7.632812 C 19.734375 6.945312 20.265625 5.910156 20.296875 5.84375 C 20.34375 5.753906 20.347656 5.644531 20.308594 5.550781 C 20.269531 5.457031 20.191406 5.386719 20.09375 5.351562 C 20.027344 5.328125 18.917969 4.972656 17.804688 5.113281 C 18.363281 4.140625 18.457031 2.980469 18.460938 2.910156 C 18.46875 2.804688 18.433594 2.707031 18.359375 2.632812 C 18.289062 2.5625 18.1875 2.523438 18.085938 2.53125 C 18.011719 2.539062 16.851562 2.628906 15.878906 3.1875 C 16.023438 2.074219 15.664062 0.96875 15.640625 0.898438 C 15.609375 0.800781 15.535156 0.722656 15.441406 0.683594 C 15.347656 0.644531 15.242188 0.648438 15.148438 0.695312 C 15.085938 0.726562 14.046875 1.257812 13.363281 2.144531 C 13.066406 1.0625 12.3125 0.175781 12.265625 0.121094 C 12.199219 0.0429688 12.101562 0 12 0 C 11.898438 0 11.800781 0.0429688 11.734375 0.121094 C 11.6875 0.175781 10.933594 1.0625 10.636719 2.144531 C 9.953125 1.257812 8.914062 0.726562 8.851562 0.695312 C 8.757812 0.648438 8.652344 0.644531 8.558594 0.683594 C 8.464844 0.722656 8.390625 0.800781 8.359375 0.898438 C 8.335938 0.96875 7.976562 2.074219 8.121094 3.1875 C 7.148438 2.628906 5.988281 2.539062 5.914062 2.53125 C 5.8125 2.523438 5.710938 2.5625 5.640625 2.632812 C 5.566406 2.707031 5.53125 2.804688 5.539062 2.910156 C 5.542969 2.980469 5.636719 4.140625 6.195312 5.113281 C 5.082031 4.972656 3.972656 5.328125 3.90625 5.351562 C 3.808594 5.386719 3.730469 5.457031 3.691406 5.550781 C 3.652344 5.648438 3.65625 5.753906 3.703125 5.84375 C 3.734375 5.910156 4.265625 6.945312 5.152344 7.632812 C 4.070312 7.925781 3.183594 8.679688 3.128906 8.726562 C 3.050781 8.792969 3.007812 8.890625 3.007812 8.992188 C 3.007812 9.097656 3.050781 9.191406 3.128906 9.261719 C 3.183594 9.308594 4.070312 10.0625 5.152344 10.355469 C 4.265625 11.042969 3.734375 12.078125 3.703125 12.144531 C 3.65625 12.234375 3.652344 12.339844 3.691406 12.4375 C 3.730469 12.53125 3.808594 12.601562 3.90625 12.636719 C 3.960938 12.652344 4.746094 12.90625 5.648438 12.90625 C 5.828125 12.90625 6.011719 12.898438 6.195312 12.875 C 5.636719 13.847656 5.542969 15.007812 5.539062 15.078125 C 5.53125 15.179688 5.566406 15.28125 5.640625 15.355469 C 5.707031 15.417969 5.796875 15.457031 5.890625 15.457031 C 5.898438 15.457031 5.90625 15.457031 5.914062 15.457031 C 5.988281 15.449219 7.148438 15.355469 8.121094 14.800781 C 7.976562 15.914062 8.335938 17.019531 8.359375 17.089844 C 8.390625 17.1875 8.464844 17.265625 8.558594 17.304688 C 8.601562 17.320312 8.648438 17.332031 8.691406 17.332031 C 8.746094 17.332031 8.800781 17.316406 8.851562 17.292969 C 8.914062 17.261719 9.953125 16.730469 10.636719 15.84375 C 10.878906 16.734375 11.433594 17.492188 11.648438 17.761719 L 11.648438 21.871094 C 11.34375 21.5 11.039062 21.167969 10.933594 21.054688 C 10.816406 20.808594 10.324219 19.851562 9.222656 18.765625 C 8.078125 17.636719 6.03125 16.148438 2.765625 15.449219 C 2.644531 15.421875 2.515625 15.464844 2.433594 15.554688 C 2.347656 15.648438 2.320312 15.777344 2.355469 15.898438 C 2.371094 15.945312 2.742188 17.113281 3.953125 18.402344 C 5.042969 19.5625 7.054688 21.050781 10.460938 21.578125 C 10.691406 21.832031 11.347656 22.5625 11.648438 23.042969 L 11.648438 23.648438 C 11.648438 23.84375 11.804688 24 12 24 C 12.195312 24 12.351562 23.84375 12.351562 23.648438 L 12.351562 23.042969 C 12.652344 22.5625 13.308594 21.832031 13.539062 21.578125 C 16.945312 21.050781 18.957031 19.5625 20.046875 18.402344 C 21.257812 17.113281 21.628906 15.945312 21.644531 15.898438 C 21.679688 15.777344 21.652344 15.648438 21.566406 15.554688 Z M 4.492188 17.949219 C 3.898438 17.320312 3.523438 16.722656 3.300781 16.300781 C 5.984375 17.003906 7.707031 18.265625 8.699219 19.238281 C 9.304688 19.828125 9.710938 20.382812 9.96875 20.777344 C 7.144531 20.214844 5.441406 18.949219 4.492188 17.949219 Z M 15.085938 16.441406 C 14.898438 16.320312 14.664062 16.15625 14.433594 15.953125 C 14.023438 15.59375 13.542969 15.046875 13.472656 14.410156 C 13.9375 14.28125 14.378906 14.097656 14.785156 13.863281 C 15.375 14.59375 15.222656 15.800781 15.085938 16.441406 Z M 16.910156 14.492188 C 16.394531 14.316406 15.738281 13.992188 15.433594 13.429688 C 15.808594 13.140625 16.144531 12.800781 16.4375 12.425781 C 17.261719 12.871094 17.582031 14.050781 17.699219 14.695312 C 17.480469 14.652344 17.203125 14.589844 16.910156 14.492188 Z M 19.445312 12.078125 C 19.230469 12.125 18.949219 12.171875 18.640625 12.195312 C 18.097656 12.230469 17.371094 12.179688 16.871094 11.78125 C 17.105469 11.371094 17.289062 10.929688 17.414062 10.46875 C 18.34375 10.566406 19.09375 11.527344 19.445312 12.078125 Z M 20.058594 8.996094 C 19.878906 9.121094 19.636719 9.273438 19.359375 9.410156 C 18.871094 9.648438 18.179688 9.882812 17.566406 9.703125 C 17.597656 9.472656 17.613281 9.234375 17.613281 8.992188 C 17.613281 8.753906 17.597656 8.515625 17.566406 8.28125 C 18.464844 8.019531 19.523438 8.621094 20.058594 8.996094 Z M 19.445312 5.910156 C 19.328125 6.09375 19.160156 6.328125 18.957031 6.5625 C 18.597656 6.972656 18.050781 7.449219 17.414062 7.519531 C 17.289062 7.054688 17.105469 6.617188 16.871094 6.207031 C 17.597656 5.617188 18.808594 5.769531 19.445312 5.910156 Z M 17.699219 3.296875 C 17.660156 3.515625 17.59375 3.800781 17.492188 4.097656 C 17.316406 4.609375 16.996094 5.257812 16.4375 5.5625 C 16.144531 5.1875 15.808594 4.847656 15.433594 4.558594 C 15.878906 3.734375 17.054688 3.410156 17.699219 3.296875 Z M 15.085938 1.546875 C 15.222656 2.1875 15.375 3.394531 14.785156 4.125 C 14.378906 3.890625 13.9375 3.703125 13.472656 3.578125 C 13.574219 2.648438 14.535156 1.902344 15.085938 1.546875 Z M 12 0.933594 C 12.371094 1.472656 12.976562 2.53125 12.710938 3.425781 C 12.476562 3.398438 12.242188 3.382812 12 3.382812 C 11.757812 3.382812 11.523438 3.398438 11.289062 3.425781 C 11.023438 2.53125 11.628906 1.472656 12 0.933594 Z M 8.914062 1.546875 C 9.464844 1.902344 10.425781 2.648438 10.527344 3.578125 C 10.0625 3.703125 9.621094 3.890625 9.214844 4.125 C 8.625 3.394531 8.777344 2.1875 8.914062 1.546875 Z M 7.101562 3.5 C 7.613281 3.675781 8.261719 4 8.566406 4.558594 C 8.191406 4.847656 7.855469 5.1875 7.5625 5.5625 C 6.738281 5.113281 6.417969 3.9375 6.300781 3.292969 C 6.523438 3.335938 6.808594 3.398438 7.101562 3.5 Z M 4.554688 5.910156 C 4.769531 5.863281 5.050781 5.8125 5.359375 5.792969 C 5.902344 5.757812 6.628906 5.808594 7.128906 6.207031 C 6.894531 6.617188 6.710938 7.058594 6.585938 7.519531 C 5.652344 7.421875 4.90625 6.460938 4.554688 5.910156 Z M 3.941406 8.992188 C 4.476562 8.621094 5.535156 8.019531 6.433594 8.28125 C 6.402344 8.515625 6.386719 8.753906 6.386719 8.992188 C 6.386719 9.234375 6.402344 9.472656 6.433594 9.707031 C 5.535156 9.96875 4.476562 9.367188 3.941406 8.992188 Z M 4.554688 12.078125 C 4.671875 11.890625 4.839844 11.660156 5.042969 11.425781 C 5.402344 11.015625 5.949219 10.539062 6.585938 10.46875 C 6.710938 10.933594 6.894531 11.371094 7.128906 11.78125 C 6.402344 12.371094 5.191406 12.214844 4.554688 12.078125 Z M 6.300781 14.691406 C 6.339844 14.476562 6.402344 14.195312 6.503906 13.902344 C 6.675781 13.386719 7 12.734375 7.5625 12.425781 C 7.855469 12.800781 8.191406 13.140625 8.566406 13.429688 C 8.121094 14.253906 6.945312 14.574219 6.300781 14.691406 Z M 8.914062 16.441406 C 8.777344 15.800781 8.625 14.589844 9.214844 13.863281 C 9.621094 14.097656 10.0625 14.28125 10.527344 14.410156 C 10.425781 15.339844 9.464844 16.085938 8.914062 16.441406 Z M 7.089844 8.992188 C 7.089844 6.289062 9.292969 4.085938 12 4.085938 C 14.707031 4.085938 16.910156 6.289062 16.910156 8.992188 C 16.910156 11.699219 14.707031 13.902344 12 13.902344 C 9.292969 13.902344 7.089844 11.699219 7.089844 8.992188 Z M 12 17.054688 C 11.875 16.871094 11.722656 16.628906 11.585938 16.351562 C 11.34375 15.863281 11.109375 15.175781 11.289062 14.5625 C 11.523438 14.589844 11.757812 14.605469 12 14.605469 C 12.242188 14.605469 12.476562 14.589844 12.710938 14.5625 C 12.976562 15.457031 12.371094 16.515625 12 17.054688 Z M 19.507812 17.949219 C 18.558594 18.949219 16.859375 20.214844 14.03125 20.777344 C 14.75 19.671875 16.671875 17.355469 20.699219 16.296875 C 20.476562 16.722656 20.101562 17.320312 19.507812 17.949219 Z M 19.507812 17.949219 "/>
</g>
</svg>
