<svg width="888" height="678" viewBox="0 0 888 678" fill="none" xmlns="http://www.w3.org/2000/svg">
<g clip-path="url(#clip0)">
<path d="M887.675 396.659C887.667 382.038 884.407 367.601 878.13 354.395C871.854 341.19 862.719 329.545 851.386 320.306C840.054 311.067 826.808 304.465 812.609 300.977C798.409 297.49 783.612 297.204 769.289 300.142C754.965 303.08 741.475 309.167 729.795 317.962C718.115 326.758 708.538 338.041 701.757 350.996C694.976 363.95 691.162 378.25 690.591 392.86C690.02 407.47 692.706 422.025 698.454 435.469C698.358 435.361 698.258 435.257 698.162 435.149C702.541 445.355 708.611 454.748 716.116 462.932C716.139 462.957 716.162 462.981 716.184 463.006C716.79 463.666 717.399 464.322 718.022 464.966C727.031 474.361 737.816 481.874 749.752 487.068C761.687 492.261 774.536 495.032 787.551 495.219L784.22 676.148H794.512L792.429 556.733L807.316 548.895L805.045 544.582L792.334 551.274L791.356 495.21C817.102 494.62 841.595 483.978 859.596 465.56C877.596 447.143 887.674 422.412 887.675 396.659Z" fill="#E6E6E6"/>
<path d="M595.087 348.612C595.078 331.477 591.257 314.558 583.902 299.082C576.547 283.606 565.841 269.96 552.56 259.133C539.28 248.306 523.757 240.568 507.116 236.481C490.476 232.394 473.135 232.06 456.349 235.502C439.564 238.945 423.754 246.079 410.066 256.386C396.378 266.694 385.154 279.917 377.208 295.098C369.262 310.279 364.792 327.038 364.122 344.159C363.453 361.281 366.601 378.338 373.337 394.093C373.224 393.967 373.108 393.845 372.995 393.719C378.127 405.679 385.24 416.686 394.036 426.278C394.062 426.307 394.089 426.335 394.116 426.364C394.825 427.137 395.539 427.907 396.269 428.661C406.826 439.672 419.466 448.476 433.454 454.563C447.441 460.649 462.499 463.896 477.752 464.115L473.848 676.148H485.908L483.467 536.204L500.913 527.019L498.252 521.964L483.356 529.806L482.21 464.105C512.382 463.413 541.086 450.941 562.181 429.358C583.276 407.774 595.087 378.792 595.087 348.612Z" fill="#E6E6E6"/>
<path d="M263.259 303.418C263.249 283.919 258.901 264.666 250.531 247.055C242.16 229.443 229.977 213.915 214.864 201.593C199.751 189.272 182.086 180.467 163.15 175.816C144.214 171.165 124.48 170.784 105.378 174.702C86.2764 178.62 68.2854 186.738 52.7087 198.467C37.132 210.197 24.3595 225.245 15.3168 242.521C6.27409 259.796 1.18754 278.867 0.425704 298.352C-0.336132 317.836 3.24582 337.246 10.912 355.175C10.7835 355.032 10.6507 354.893 10.5227 354.749C16.3621 368.359 24.4572 380.886 34.4667 391.801C34.4966 391.834 34.5273 391.866 34.5573 391.899C35.3649 392.779 36.1772 393.655 37.0082 394.512C49.022 407.043 63.4053 417.062 79.3231 423.988C95.2408 430.914 112.376 434.61 129.733 434.859L125.291 676.148H139.016L136.238 516.895L156.091 506.442L153.062 500.69L136.111 509.614L134.807 434.847C169.142 434.06 201.807 419.867 225.812 395.305C249.818 370.744 263.258 337.763 263.259 303.418V303.418Z" fill="#E6E6E6"/>
<path d="M756.685 171.951C804.169 171.951 842.661 133.459 842.661 85.9757C842.661 38.4926 804.169 0 756.685 0C709.202 0 670.71 38.4926 670.71 85.9757C670.71 133.459 709.202 171.951 756.685 171.951Z" fill="#FF6584"/>
<path d="M245.559 359.928C340.724 359.928 417.871 282.781 417.871 187.616C417.871 92.4511 340.724 15.3046 245.559 15.3046C150.394 15.3046 73.2472 92.4511 73.2472 187.616C73.2472 282.781 150.394 359.928 245.559 359.928Z" fill="#00BFA6"/>
<path opacity="0.2" d="M118.329 72.5256C102.257 110.123 100.076 152.21 112.178 191.267C124.28 230.324 149.875 263.805 184.39 285.728C218.905 307.65 260.09 316.586 300.587 310.938C341.084 305.289 378.252 285.425 405.452 254.895C395.633 277.866 380.938 298.427 362.384 315.154C343.831 331.881 321.862 344.374 298.001 351.768C274.139 359.163 248.956 361.28 224.195 357.975C199.433 354.67 175.687 346.022 154.6 332.628C133.513 319.234 115.591 301.417 102.074 280.409C88.5568 259.401 79.7688 235.705 76.3187 210.964C72.8686 186.223 74.8388 161.027 82.0928 137.123C89.3468 113.218 101.711 91.177 118.329 72.5256Z" fill="black"/>
<path d="M246.032 187.616H246.506L255.027 676.148H237.038L246.032 187.616Z" fill="#3F3D56"/>
<path d="M277.407 453.717L273.438 446.177L244.954 461.173L248.923 468.713L277.407 453.717Z" fill="#3F3D56"/>
<path d="M509.115 671.578C509.115 671.578 509.737 658.552 522.482 660.066Z" fill="#3F3D56"/>
<path d="M505.514 659.182C509.037 659.182 511.893 656.326 511.893 652.803C511.893 649.28 509.037 646.425 505.514 646.425C501.991 646.425 499.135 649.28 499.135 652.803C499.135 656.326 501.991 659.182 505.514 659.182Z" fill="#00BFA6"/>
<path d="M506.277 663.545H504.476V676.148H506.277V663.545Z" fill="#3F3D56"/>
<path d="M67.0829 669.778C67.0829 669.778 67.7046 656.751 80.4493 658.265Z" fill="#3F3D56"/>
<path d="M63.4818 657.381C67.0046 657.381 69.8604 654.526 69.8604 651.003C69.8604 647.48 67.0046 644.624 63.4818 644.624C59.959 644.624 57.1031 647.48 57.1031 651.003C57.1031 654.526 59.959 657.381 63.4818 657.381Z" fill="#00BFA6"/>
<path d="M64.2444 661.744H62.4438V674.348H64.2444V661.744Z" fill="#3F3D56"/>
<path d="M171.514 670.678C171.514 670.678 172.136 657.651 184.881 659.166Z" fill="#3F3D56"/>
<path d="M167.913 658.282C171.436 658.282 174.292 655.426 174.292 651.903C174.292 648.38 171.436 645.524 167.913 645.524C164.39 645.524 161.534 648.38 161.534 651.903C161.534 655.426 164.39 658.282 167.913 658.282Z" fill="#00BFA6"/>
<path d="M168.676 662.644H166.875V675.248H168.676V662.644Z" fill="#3F3D56"/>
<path d="M449.243 83.2986L462.038 73.0651C452.098 71.9685 448.014 77.3894 446.343 81.6801C438.578 78.4557 430.124 82.6815 430.124 82.6815L455.724 91.9752C454.433 88.5257 452.184 85.5158 449.243 83.2986Z" fill="#3F3D56"/>
<path d="M643.827 187.54L656.622 177.306C646.682 176.21 642.598 181.631 640.927 185.921C633.161 182.697 624.708 186.923 624.708 186.923L650.308 196.216C649.016 192.767 646.768 189.757 643.827 187.54V187.54Z" fill="#3F3D56"/>
<path d="M433.955 276.492L446.749 266.259C436.81 265.162 432.726 270.583 431.054 274.874C423.289 271.649 414.835 275.875 414.835 275.875L440.436 285.169C439.144 281.719 436.896 278.71 433.955 276.492V276.492Z" fill="#3F3D56"/>
<path d="M683.655 676.307C683.655 676.307 684.277 663.28 697.022 664.794Z" fill="#3F3D56"/>
<path d="M563.919 676.307C563.919 676.307 564.541 663.28 577.286 664.794Z" fill="#3F3D56"/>
<path d="M127.289 676.307C127.289 676.307 127.91 663.28 140.655 664.794Z" fill="#3F3D56"/>
<path d="M737.671 676.307C737.671 676.307 738.293 663.28 751.038 664.794Z" fill="#3F3D56"/>
<path d="M712.464 676.307C712.464 676.307 713.086 663.28 725.83 664.794Z" fill="#3F3D56"/>
<path d="M660.465 676.307C660.465 676.307 659.843 663.28 647.099 664.794Z" fill="#3F3D56"/>
<path d="M453.403 676.307C453.403 676.307 452.781 663.28 440.037 664.794Z" fill="#3F3D56"/>
<path d="M281.452 676.307C281.452 676.307 280.83 663.28 268.085 664.794Z" fill="#3F3D56"/>
<path d="M98.6969 676.307C98.6969 676.307 98.0752 663.28 85.3304 664.794Z" fill="#3F3D56"/>
<path d="M791.905 676.307C791.905 676.307 791.283 663.28 778.538 664.794Z" fill="#3F3D56"/>
<path d="M714.481 677.207C714.481 677.207 713.859 664.18 701.115 665.694Z" fill="#3F3D56"/>
<path d="M888 674.604H0V676.604H888V674.604Z" fill="#3F3D56"/>
</g>
<defs>
<clipPath id="clip0">
<rect width="888" height="677.207" fill="white"/>
</clipPath>
</defs>
</svg>