<?xml version="1.0" encoding="UTF-8"?>
<svg xmlns="http://www.w3.org/2000/svg" xmlns:xlink="http://www.w3.org/1999/xlink" width="24pt" height="24pt" viewBox="0 0 24 24" version="1.1">
<g id="surface1">
<path style=" stroke:none;fill-rule:nonzero;fill:rgb(0%,0%,0%);fill-opacity:1;" d="M 24 1.585938 L 24 0.703125 C 24 0.316406 23.683594 0 23.296875 0 L 22.414062 0 C 20.242188 0 18.488281 1.15625 17.503906 2.667969 C 17.246094 2.105469 16.890625 1.585938 16.4375 1.132812 C 15.949219 0.644531 15.507812 0.207031 15.507812 0.207031 C 15.234375 -0.0703125 14.789062 -0.0703125 14.515625 0.207031 L 13.585938 1.132812 C 12.597656 2.125 12.050781 3.441406 12.050781 4.84375 C 12.050781 5.207031 12.085938 5.5625 12.15625 5.90625 C 12.082031 5.820312 12 5.734375 11.917969 5.652344 L 10.992188 4.726562 C 10.714844 4.449219 10.269531 4.449219 9.996094 4.726562 L 9.070312 5.652344 C 8.078125 6.644531 7.53125 7.960938 7.53125 9.363281 C 7.53125 9.726562 7.566406 10.082031 7.636719 10.425781 C 7.5625 10.339844 7.484375 10.253906 7.398438 10.171875 L 6.472656 9.242188 C 6.339844 9.113281 6.160156 9.039062 5.976562 9.039062 C 5.789062 9.039062 5.609375 9.113281 5.476562 9.242188 L 4.550781 10.171875 C 2.519531 12.199219 2.476562 15.523438 4.550781 17.59375 L 4.980469 18.023438 L 0.207031 22.800781 C -0.0703125 23.074219 -0.0703125 23.519531 0.207031 23.792969 C 0.480469 24.070312 0.925781 24.070312 1.199219 23.792969 L 5.976562 19.019531 L 6.40625 19.449219 C 7.398438 20.441406 8.714844 20.988281 10.117188 20.988281 C 10.699219 20.988281 12.378906 20.898438 13.828125 19.449219 L 14.757812 18.523438 C 14.886719 18.390625 14.960938 18.210938 14.960938 18.023438 C 14.960938 17.839844 14.886719 17.660156 14.757812 17.527344 L 13.828125 16.597656 C 13.746094 16.515625 13.660156 16.4375 13.574219 16.363281 C 13.917969 16.433594 14.273438 16.46875 14.636719 16.46875 C 16.039062 16.46875 17.355469 15.921875 18.347656 14.933594 L 19.273438 14.003906 C 19.550781 13.730469 19.550781 13.285156 19.273438 13.007812 L 18.347656 12.082031 C 18.265625 12 18.179688 11.917969 18.09375 11.84375 C 18.4375 11.914062 18.792969 11.949219 19.15625 11.949219 C 20.554688 11.949219 21.875 11.402344 22.867188 10.414062 L 23.792969 9.484375 C 24.070312 9.210938 24.070312 8.765625 23.792969 8.492188 L 22.867188 7.5625 C 22.414062 7.109375 21.894531 6.75 21.332031 6.496094 C 22.839844 5.511719 24 3.761719 24 1.585938 Z M 14.582031 2.128906 L 15.011719 1.699219 C 15.144531 1.828125 15.289062 1.976562 15.441406 2.128906 C 16.945312 3.628906 16.945312 6.058594 15.441406 7.5625 L 15.011719 7.992188 L 14.582031 7.5625 C 13.09375 6.074219 13.066406 3.640625 14.582031 2.128906 Z M 13.347656 8.300781 C 13.425781 8.390625 13.503906 8.472656 13.585938 8.554688 L 15.441406 10.414062 C 15.527344 10.496094 15.609375 10.574219 15.699219 10.652344 C 14.628906 10.433594 13.75 10.59375 13.28125 10.71875 C 13.40625 10.25 13.566406 9.371094 13.347656 8.300781 Z M 10.0625 6.648438 L 10.492188 6.214844 L 10.925781 6.648438 C 12.425781 8.148438 12.429688 10.578125 10.925781 12.082031 L 10.492188 12.511719 L 10.0625 12.082031 C 8.574219 10.59375 8.546875 8.160156 10.0625 6.648438 Z M 8.832031 12.820312 C 8.90625 12.90625 8.984375 12.992188 9.066406 13.074219 L 10.925781 14.933594 C 11.007812 15.015625 11.09375 15.09375 11.179688 15.167969 C 10.109375 14.949219 9.230469 15.113281 8.761719 15.238281 C 8.886719 14.769531 9.046875 13.890625 8.832031 12.820312 Z M 6.40625 16.601562 L 5.976562 17.03125 L 5.542969 16.597656 C 4.058594 15.113281 4.027344 12.679688 5.542969 11.167969 L 5.976562 10.734375 L 6.40625 11.167969 C 7.90625 12.664062 7.910156 15.097656 6.40625 16.601562 Z M 12.835938 18.457031 C 12.109375 19.179688 11.144531 19.582031 10.117188 19.582031 C 9.6875 19.582031 8.457031 19.515625 7.398438 18.457031 L 6.96875 18.023438 L 7.398438 17.59375 C 8.902344 16.09375 11.332031 16.089844 12.835938 17.59375 L 13.265625 18.023438 Z M 17.351562 13.9375 C 15.863281 15.425781 13.433594 15.449219 11.917969 13.9375 L 11.488281 13.507812 L 11.917969 13.074219 C 13.417969 11.574219 15.847656 11.574219 17.351562 13.074219 L 17.785156 13.507812 Z M 21.871094 8.554688 L 22.300781 8.988281 L 21.871094 9.417969 C 20.382812 10.90625 17.949219 10.929688 16.4375 9.417969 C 16.285156 9.265625 16.136719 9.117188 16.007812 8.988281 L 16.4375 8.554688 C 17.9375 7.054688 20.367188 7.054688 21.871094 8.554688 Z M 18.152344 6.023438 L 17.976562 6.023438 L 17.976562 5.84375 C 17.976562 3.390625 19.964844 1.40625 22.414062 1.40625 L 22.59375 1.40625 L 22.59375 1.585938 C 22.59375 4.054688 20.585938 6.023438 18.152344 6.023438 Z M 18.152344 6.023438 "/>
</g>
</svg>
